<?xml version="1.0" encoding="UTF-8"?>
<svg width="3840" height="2160" version="1.1" viewBox="0 0 1016 571.5" xmlns="http://www.w3.org/2000/svg">
<g stroke="#fff">
<rect x="2.0412" y="2.0412" width="1014.5" height="570.87" fill="none" opacity=".1" stroke-width=".26458"/>
<ellipse cx="195.28" cy="375.59" rx="12.997" ry="13.678" fill="#fff" opacity=".1" stroke-width=".12575"/>
<path transform="scale(.26458)" d="m1384.6 1562.3a49.123 51.695 0 0 0-37.865 18.803 49.123 51.695 0 0 0-28.693-12.475 49.123 51.695 0 0 0-15.244-2.6465 49.123 51.695 0 0 0-49.123 51.695 49.123 51.695 0 0 0 43.787 50.805 49.123 51.695 0 0 0 17.568 3.4356 49.123 51.695 0 0 0 37.684-18.645 49.123 51.695 0 0 0 31.887 12.418 49.123 51.695 0 0 0 49.123-51.695 49.123 51.695 0 0 0-49.123-51.695zm110.57 58.264a49.123 51.695 0 0 0-49.123 51.695 49.123 51.695 0 0 0 49.123 51.695 49.123 51.695 0 0 0 49.123-51.695 49.123 51.695 0 0 0-49.123-51.695zm165.33 186.96a49.123 51.695 0 0 0-49.123 51.695 49.123 51.695 0 0 0 22.822 43.619 49.123 51.695 0 0 0-23.273 43.576 49.123 51.695 0 0 0 13.828 35.914 49.123 51.695 0 0 0-16.439 38.568 49.123 51.695 0 0 0 49.123 51.695 49.123 51.695 0 0 0 37.762-18.674 49.123 51.695 0 0 0 34.035-49.164 49.123 51.695 0 0 0-22.215-43.219 49.123 51.695 0 0 0 2.1523-15.121 49.123 51.695 0 0 0-22.562-43.449 49.123 51.695 0 0 0 23.014-43.746 49.123 51.695 0 0 0-49.123-51.695zm158.91 201.69a49.123 51.695 0 0 0-49.123 51.695 49.123 51.695 0 0 0 4.5391 21.644 49.123 51.695 0 0 0-18.426 40.228 49.123 51.695 0 0 0 49.123 51.695 49.123 51.695 0 0 0 49.123-51.695 49.123 51.695 0 0 0-4.4902-21.564 49.123 51.695 0 0 0 18.379-40.309 49.123 51.695 0 0 0-49.125-51.695z" fill="#fff" opacity=".1" stroke-width=".47526"/>
<path transform="scale(.26458)" d="m1453.7 1192a49.123 51.695 0 0 0-32.18 12.686 49.123 51.695 0 0 0-11.1-1.3516 49.123 51.695 0 0 0-49.123 51.695 49.123 51.695 0 0 0 49.123 51.695 49.123 51.695 0 0 0 32.195-12.672 49.123 51.695 0 0 0 11.084 1.3379 49.123 51.695 0 0 0 14.436-2.3028 49.123 51.695 0 0 0 12.297 12.801 49.123 51.695 0 0 0 47.027 36.801 49.123 51.695 0 0 0 49.123-51.695 49.123 51.695 0 0 0-21.348-42.635 49.123 51.695 0 0 0-46.789-36.48 49.123 51.695 0 0 0-14.443 2.2852 49.123 51.695 0 0 0-40.303-22.164zm291.76 151.43a49.123 51.695 0 0 0-49.125 51.695 49.123 51.695 0 0 0 5.6035 23.361 49.123 51.695 0 0 0-0.1054 2.9414 49.123 51.695 0 0 0 49.123 51.695 49.123 51.695 0 0 0 49.125-51.695 49.123 51.695 0 0 0-5.7539-24.264 49.123 51.695 0 0 0 0.2559-2.0391 49.123 51.695 0 0 0-49.123-51.695zm248.44 141.42a49.123 51.695 0 0 0-38.752 19.955 49.123 51.695 0 0 0-47.324 51.396 49.123 51.695 0 0 0 49.123 51.693 49.123 51.695 0 0 0 38.217-19.703 49.123 51.695 0 0 0 47.859-51.646 49.123 51.695 0 0 0-49.123-51.695zm208.02 203.64a49.123 51.695 0 0 0-49.123 51.695 49.123 51.695 0 0 0 49.123 51.695 49.123 51.695 0 0 0 49.123-51.695 49.123 51.695 0 0 0-49.123-51.695zm311.44 248.45a49.123 51.695 0 0 0-49.123 51.695 49.123 51.695 0 0 0 49.123 51.695 49.123 51.695 0 0 0 49.125-51.695 49.123 51.695 0 0 0-49.125-51.695z" fill="#fff" opacity=".1" stroke-width=".47526"/>
<path transform="scale(.26458)" d="m2886 1366.6a49.123 51.695 0 0 0-49.123 51.695 49.123 51.695 0 0 0 49.123 51.695 49.123 51.695 0 0 0 35.129-15.609 49.123 51.695 0 0 0-2.9375 16.592 49.123 51.695 0 0 0 49.123 51.695 49.123 51.695 0 0 0 49.123-51.695 49.123 51.695 0 0 0-49.123-51.693 49.123 51.695 0 0 0-34.645 15.068 49.123 51.695 0 0 0 2.4532-16.053 49.123 51.695 0 0 0-49.123-51.695zm87.904 406.41a49.123 51.695 0 0 0-49.123 51.695 49.123 51.695 0 0 0 39.141 50.588 49.123 51.695 0 0 0 3.4082 2.3555 49.123 51.695 0 0 0-0.5469 7.3105 49.123 51.695 0 0 0 49.125 51.695 49.123 51.695 0 0 0 32.162-12.641 49.123 51.695 0 0 0 11.059-1.623 49.123 51.695 0 0 0 26.234 8.0312 49.123 51.695 0 0 0 49.125-51.695 49.123 51.695 0 0 0-0.2832-5.332 49.123 51.695 0 0 0 28.332-46.816 49.123 51.695 0 0 0-49.123-51.693 49.123 51.695 0 0 0-49.027 49.002 49.123 51.695 0 0 0-16.824-3.2422 49.123 51.695 0 0 0-8.9531 0.9844 49.123 51.695 0 0 0-37.322-39.838 49.123 51.695 0 0 0-27.383-8.7813z" fill="#fff" opacity=".1" stroke-width=".47526"/>
<path transform="scale(.26458)" d="m3228.6 933.85a49.123 51.695 0 0 0-49.123 51.695 49.123 51.695 0 0 0 49.123 51.695 49.123 51.695 0 0 0 49.123-51.695 49.123 51.695 0 0 0-49.123-51.695zm91.373 122.12a49.123 51.695 0 0 0-49.123 51.695 49.123 51.695 0 0 0 49.123 51.695 49.123 51.695 0 0 0 49.123-51.695 49.123 51.695 0 0 0-49.123-51.695zm152.56 79.41a49.123 51.695 0 0 0-43.896 29.289 49.123 51.695 0 0 0-48.57 51.672 49.123 51.695 0 0 0 49.125 51.695 49.123 51.695 0 0 0 44.277-29.31 49.123 51.695 0 0 0 48.19-51.652 49.123 51.695 0 0 0-49.125-51.693zm74.18 191.57a49.123 51.695 0 0 0-49.123 51.695 49.123 51.695 0 0 0 49.123 51.695 49.123 51.695 0 0 0 49.123-51.695 49.123 51.695 0 0 0-49.123-51.695zm113.84 3.8164a49.123 51.695 0 0 0-49.123 51.695 49.123 51.695 0 0 0 49.123 51.695 49.123 51.695 0 0 0 49.123-51.695 49.123 51.695 0 0 0-49.123-51.695zm17.322 398.95a49.123 51.695 0 0 0-19.203 4.6835 49.123 51.695 0 0 0-44.035 51.383 49.123 51.695 0 0 0 2.5625 16.383 49.123 51.695 0 0 0-0.1054 0.5625 49.123 51.695 0 0 0 49.123 51.695 49.123 51.695 0 0 0 30.883-11.938 49.123 51.695 0 0 0 7.6094 0.6348 49.123 51.695 0 0 0 49.123-51.695 49.123 51.695 0 0 0-46.928-51.641 49.123 51.695 0 0 0-29.029-10.068z" fill="#fff" opacity=".1" stroke-width=".47526"/>
<path transform="scale(.26458)" d="m2880.2 47.236a49.123 51.695 0 0 0-49.123 51.695 49.123 51.695 0 0 0 34.951 49.471 49.123 51.695 0 0 0 48.67 44.877 49.123 51.695 0 0 0 49.123-51.695 49.123 51.695 0 0 0-34.941-49.49 49.123 51.695 0 0 0-48.68-44.857zm105.99 137.14a49.123 51.695 0 0 0-49.123 51.695 49.123 51.695 0 0 0 49.123 51.695 49.123 51.695 0 0 0 23.525-6.3496 49.123 51.695 0 0 0 39.303 27.363 49.123 51.695 0 0 0 48.545 43.826 49.123 51.695 0 0 0 49.123-51.695 49.123 51.695 0 0 0-45.031-51.512 49.123 51.695 0 0 0-48.445-43.391 49.123 51.695 0 0 0-23.324 6.4473 49.123 51.695 0 0 0-43.695-28.08zm113.84 185.91a49.123 51.695 0 0 0-49.123 51.695 49.123 51.695 0 0 0 49.123 51.695 49.123 51.695 0 0 0 49.125-51.695 49.123 51.695 0 0 0-49.125-51.695zm107.13 151.02a49.123 51.695 0 0 0-49.123 51.695 49.123 51.695 0 0 0 49.123 51.695 49.123 51.695 0 0 0 49.123-51.695 49.123 51.695 0 0 0-49.123-51.695zm74.975 137.16a49.123 51.695 0 0 0-49.123 51.693 49.123 51.695 0 0 0 49.123 51.695 49.123 51.695 0 0 0 49.123-51.695 49.123 51.695 0 0 0-49.123-51.693z" fill="#fff" opacity=".1" stroke-width=".47526"/>
<path transform="scale(.26458)" d="m1951 30.732a49.123 51.695 0 0 0-35.254 15.738 49.123 51.695 0 0 0-31.406-11.967 49.123 51.695 0 0 0-49.123 51.695 49.123 51.695 0 0 0 49.123 51.695 49.123 51.695 0 0 0 35.266-15.742 49.123 51.695 0 0 0 12.141 7.6289 49.123 51.695 0 0 0-4.1406 20.684 49.123 51.695 0 0 0 8.9629 29.729 49.123 51.695 0 0 0 48.918 49.49 49.123 51.695 0 0 0 21.646-5.4785 49.123 51.695 0 0 0 35.381 15.871 49.123 51.695 0 0 0 49.123-51.695 49.123 51.695 0 0 0-25.418-45.275 49.123 51.695 0 0 0-49.094-50.752 49.123 51.695 0 0 0-19.232 4.1641 49.123 51.695 0 0 0 2.2305-14.09 49.123 51.695 0 0 0-49.123-51.695zm96.055 227.71a49.123 51.695 0 0 0-49.123 51.695 49.123 51.695 0 0 0 49.123 51.695 49.123 51.695 0 0 0 49.125-51.695 49.123 51.695 0 0 0-49.125-51.695zm240.82 71.256a49.123 51.695 0 0 0-49.123 51.695 49.123 51.695 0 0 0 49.123 51.695 49.123 51.695 0 0 0 49.123-51.695 49.123 51.695 0 0 0-49.123-51.695zm-1.5742 116.65a49.123 51.695 0 0 0-49.123 51.695 49.123 51.695 0 0 0 49.123 51.695 49.123 51.695 0 0 0 49.123-51.695 49.123 51.695 0 0 0-49.123-51.695zm434.81 436a49.123 51.695 0 0 0-49.125 51.695 49.123 51.695 0 0 0 49.125 51.695 49.123 51.695 0 0 0 49.123-51.695 49.123 51.695 0 0 0-49.123-51.695zm106.47 21.521a49.123 51.695 0 0 0-49.123 51.695 49.123 51.695 0 0 0 49.123 51.695 49.123 51.695 0 0 0 49.123-51.695 49.123 51.695 0 0 0-49.123-51.695zm150.1 60.508a49.123 51.695 0 0 0-49.123 51.695 49.123 51.695 0 0 0 49.123 51.695 49.123 51.695 0 0 0 49.123-51.695 49.123 51.695 0 0 0-49.123-51.695z" fill="#fff" opacity=".1" stroke-width=".47526"/>
<path transform="scale(.26458)" d="m1306.2 317.24a49.123 51.695 0 0 0-49.125 51.695 49.123 51.695 0 0 0 49.125 51.695 49.123 51.695 0 0 0 49.123-51.695 49.123 51.695 0 0 0-49.123-51.695zm297.53 92.945a49.123 51.695 0 0 0-49.123 51.695 49.123 51.695 0 0 0 49.123 51.695 49.123 51.695 0 0 0 49.123-51.695 49.123 51.695 0 0 0-49.123-51.695zm133.12 196.49a49.123 51.695 0 0 0-49.123 51.695 49.123 51.695 0 0 0 49.123 51.695 49.123 51.695 0 0 0 49.125-51.695 49.123 51.695 0 0 0-49.125-51.695zm120.77 12.602a49.123 51.695 0 0 0-49.123 51.695 49.123 51.695 0 0 0 49.123 51.695 49.123 51.695 0 0 0 49.123-51.695 49.123 51.695 0 0 0-49.123-51.695zm197.88 117.1a49.123 51.695 0 0 0-49.123 51.695 49.123 51.695 0 0 0 17.672 39.549 49.123 51.695 0 0 0-2.5234 16.27 49.123 51.695 0 0 0 49.123 51.695 49.123 51.695 0 0 0 49.123-51.695 49.123 51.695 0 0 0-17.617-39.658 49.123 51.695 0 0 0 2.4687-16.16 49.123 51.695 0 0 0-49.123-51.695zm148.42 119.9a49.123 51.695 0 0 0-49.123 51.695 49.123 51.695 0 0 0 49.123 51.695 49.123 51.695 0 0 0 49.123-51.695 49.123 51.695 0 0 0-49.123-51.695zm-126.67 63.498a49.123 51.695 0 0 0-49.123 51.695 49.123 51.695 0 0 0 49.123 51.695 49.123 51.695 0 0 0 49.123-51.695 49.123 51.695 0 0 0-49.123-51.695z" fill="#fff" opacity=".1" stroke-width=".47526"/>
<path transform="scale(.26458)" d="m344.39 103.64a49.123 51.695 0 0 0-49.125 51.695 49.123 51.695 0 0 0 49.125 51.695 49.123 51.695 0 0 0 44.834-30.654 49.123 51.695 0 0 0-0.32812 4.8242 49.123 51.695 0 0 0 19.404 41.018 49.123 51.695 0 0 0 46.609 35.457 49.123 51.695 0 0 0 19.01-4.0606 49.123 51.695 0 0 0-8.5274 28.564 49.123 51.695 0 0 0 49.125 51.695 49.123 51.695 0 0 0 49.123-51.695 49.123 51.695 0 0 0-49.123-51.695 49.123 51.695 0 0 0-18.756 4.1777 49.123 51.695 0 0 0 8.2715-28.682 49.123 51.695 0 0 0-19.469-41.207 49.123 51.695 0 0 0-46.545-35.268 49.123 51.695 0 0 0-44.705 30.283 49.123 51.695 0 0 0 0.19922-4.4531 49.123 51.695 0 0 0-49.123-51.695zm312.08 293.55a49.123 51.695 0 0 0-49.123 51.695 49.123 51.695 0 0 0 49.123 51.693 49.123 51.695 0 0 0 49.125-51.693 49.123 51.695 0 0 0-49.125-51.695zm-97.779 18.346a49.123 51.695 0 0 0-49.123 51.695 49.123 51.695 0 0 0 49.123 51.695 49.123 51.695 0 0 0 49.123-51.695 49.123 51.695 0 0 0-49.123-51.695zm274.72 274.42a49.123 51.695 0 0 0-49.123 51.695 49.123 51.695 0 0 0 38.076 50.365 49.123 51.695 0 0 0-0.69922 4.6524 49.123 51.695 0 0 0 49.123 51.695 49.123 51.695 0 0 0 49.125-51.695 49.123 51.695 0 0 0-37.613-50.24 49.123 51.695 0 0 0 0.23438-4.7773 49.123 51.695 0 0 0-49.123-51.695zm202 266.24a49.123 51.695 0 0 0-49.123 51.695 49.123 51.695 0 0 0 49.123 51.695 49.123 51.695 0 0 0 49.123-51.695 49.123 51.695 0 0 0-49.123-51.695zm98.316 21.943a49.123 51.695 0 0 0-49.123 51.695 49.123 51.695 0 0 0 49.123 51.695 49.123 51.695 0 0 0 49.125-51.695 49.123 51.695 0 0 0-49.125-51.695z" fill="#fff" opacity=".1" stroke-width=".47526"/>
<path transform="scale(.26458)" d="m68.746 906.69a49.123 51.695 0 0 0-49.123 51.695 49.123 51.695 0 0 0 21.088 41.852 49.123 51.695 0 0 0-0.34375 2.3809 49.123 51.695 0 0 0-14.734 36.646 49.123 51.695 0 0 0 20.314 41.828 49.123 51.695 0 0 0 20.459 12.289 49.123 51.695 0 0 0 0.55664 0.6855 49.123 51.695 0 0 0-1.6738 13.242 49.123 51.695 0 0 0 49.123 51.695 49.123 51.695 0 0 0 49.123-51.695 49.123 51.695 0 0 0-2.2402-15.432 49.123 51.695 0 0 0 24.998-44.808 49.123 51.695 0 0 0-49.125-51.695 49.123 51.695 0 0 0-0.74024 0.08594 49.123 51.695 0 0 0-19.4-28.799 49.123 51.695 0 0 0 0.8418-8.2754 49.123 51.695 0 0 0-49.123-51.695zm146.98 262.88a49.123 51.695 0 0 0-49.123 51.695 49.123 51.695 0 0 0 49.123 51.695 49.123 51.695 0 0 0 20.148-4.6074 49.123 51.695 0 0 0 41.58 24.234 49.123 51.695 0 0 0 49.123-51.695 49.123 51.695 0 0 0-49.123-51.695 49.123 51.695 0 0 0-20.172 4.5957 49.123 51.695 0 0 0-41.557-24.223zm126.05 151.36a49.123 51.695 0 0 0-49.123 51.695 49.123 51.695 0 0 0 40.527 50.264 49.123 51.695 0 0 0-39.273 50.615 49.123 51.695 0 0 0 49.123 51.693 49.123 51.695 0 0 0 49.123-51.693 49.123 51.695 0 0 0-39.109-50.609 49.123 51.695 0 0 0 37.857-50.27 49.123 51.695 0 0 0-49.125-51.695zm-101.23 14.734a49.123 51.695 0 0 0-49.123 51.695 49.123 51.695 0 0 0 49.123 51.695 49.123 51.695 0 0 0 49.123-51.695 49.123 51.695 0 0 0-49.123-51.695zm214.79 171.09a49.123 51.695 0 0 0-49.125 51.695 49.123 51.695 0 0 0 0.07227 1.998 49.123 51.695 0 0 0-24.555-7.0195 49.123 51.695 0 0 0-8.6621 0.8437 49.123 51.695 0 0 0-32.02-12.588 49.123 51.695 0 0 0-49.123 51.695 49.123 51.695 0 0 0 49.123 51.695 49.123 51.695 0 0 0 8.5742-0.875 49.123 51.695 0 0 0 32.107 12.619 49.123 51.695 0 0 0 49.123-51.695 49.123 51.695 0 0 0-0.11133-1.9258 49.123 51.695 0 0 0 24.596 6.9473 49.123 51.695 0 0 0 49.123-51.695 49.123 51.695 0 0 0-49.123-51.695zm89.896 100.45a49.123 51.695 0 0 0-49.123 51.695 49.123 51.695 0 0 0 3.8906 19.045 49.123 51.695 0 0 0-3.0527-0.1055 49.123 51.695 0 0 0-49.123 51.695 49.123 51.695 0 0 0 49.123 51.695 49.123 51.695 0 0 0 49.123-51.695 49.123 51.695 0 0 0-3.5918-19.4 49.123 51.695 0 0 0 2.7539 0.459 49.123 51.695 0 0 0 29.393-11.385 49.123 51.695 0 0 0-1.6289 13.07 49.123 51.695 0 0 0 49.123 51.693 49.123 51.695 0 0 0 49.123-51.693 49.123 51.695 0 0 0-49.123-51.695 49.123 51.695 0 0 0-30.143 10.902 49.123 51.695 0 0 0 2.3789-12.586 49.123 51.695 0 0 0-49.123-51.695zm302.23 106.9a49.123 51.695 0 0 0-40.113 21.898 49.123 51.695 0 0 0-7.75-0.6992 49.123 51.695 0 0 0-49.123 51.695 49.123 51.695 0 0 0 49.123 51.695 49.123 51.695 0 0 0 40-21.885 49.123 51.695 0 0 0 7.8633 0.6856 49.123 51.695 0 0 0 49.125-51.695 49.123 51.695 0 0 0-49.125-51.695zm84.395 73.137a49.123 51.695 0 0 0-49.123 51.695 49.123 51.695 0 0 0 3.1894 16.879 49.123 51.695 0 0 0-6.3672-0.4375 49.123 51.695 0 0 0-49.123 51.695 49.123 51.695 0 0 0 49.123 51.695 49.123 51.695 0 0 0 49.125-51.695 49.123 51.695 0 0 0-2.9824-17.73 49.123 51.695 0 0 0 6.1582 1.2891 49.123 51.695 0 0 0 49.123-51.695 49.123 51.695 0 0 0-49.123-51.695zm-240.6 14.342a49.123 51.695 0 0 0-49.123 51.695 49.123 51.695 0 0 0 49.123 51.695 49.123 51.695 0 0 0 49.123-51.695 49.123 51.695 0 0 0-49.123-51.695z" fill="#fff" opacity=".1" stroke-width=".47526"/>
<path transform="scale(.26458)" d="m221.88 1791.1a49.123 51.695 0 0 0-49.123 51.695 49.123 51.695 0 0 0 0.02929 0.2344 49.123 51.695 0 0 0-5.4961 23.686 49.123 51.695 0 0 0 26.49 45.609 49.123 51.695 0 0 0 33.859 14.27 49.123 51.695 0 0 0 49.123-51.695 49.123 51.695 0 0 0-6.4941-25.68 49.123 51.695 0 0 0 0.73633-6.4238 49.123 51.695 0 0 0-49.125-51.695zm-85.367 84.256a49.123 51.695 0 0 0-49.125 51.695 49.123 51.695 0 0 0 49.125 51.693 49.123 51.695 0 0 0 49.123-51.693 49.123 51.695 0 0 0-49.123-51.695zm176.65 40.002a49.123 51.695 0 0 0-49.125 51.695 49.123 51.695 0 0 0 15.459 37.629 49.123 51.695 0 0 0 11.701 22.453 49.123 51.695 0 0 0-1.9688 14.4 49.123 51.695 0 0 0 49.123 51.695 49.123 51.695 0 0 0 47.873-40.119 49.123 51.695 0 0 0 8.6973-10.346 49.123 51.695 0 0 0 2.3281 3.7441 49.123 51.695 0 0 0-13.84 35.926 49.123 51.695 0 0 0 38.311 50.309 49.123 51.695 0 0 0 28.33 9.4941 49.123 51.695 0 0 0 49.123-51.695 49.123 51.695 0 0 0-24.924-44.982 49.123 51.695 0 0 0 4.4375-6.9863 49.123 51.695 0 0 0 22.506-43.432 49.123 51.695 0 0 0-49.123-51.695 49.123 51.695 0 0 0-9.0957 1.0274 49.123 51.695 0 0 0-12.973-1.8399 49.123 51.695 0 0 0-3.1758 0.293 49.123 51.695 0 0 0-42.588-25.94 49.123 51.695 0 0 0-34.488 15.574 49.123 51.695 0 0 0-36.588-17.205zm-118.4 54.166a49.123 51.695 0 0 0-49.123 51.693 49.123 51.695 0 0 0 49.123 51.695 49.123 51.695 0 0 0 49.123-51.695 49.123 51.695 0 0 0-49.123-51.693z" fill="#fff" opacity=".1" stroke-width=".47526"/>
<path transform="scale(.26458)" d="m209.55 416.49a49.123 51.695 0 0 0-31.916 12.607 49.123 51.695 0 0 0-31.893 48.387 49.123 51.695 0 0 0 36.113 49.805 49.123 51.695 0 0 0-12.033-1.6387 49.123 51.695 0 0 0-49.123 51.695 49.123 51.695 0 0 0 41.857 51.123 49.123 51.695 0 0 0 46.898 37.162 49.123 51.695 0 0 0 49.123-51.695 49.123 51.695 0 0 0-41.602-51.068 49.123 51.695 0 0 0-34.344-35.383 49.123 51.695 0 0 0 12.232 1.6953 49.123 51.695 0 0 0 29.289-10.361 49.123 51.695 0 0 0-0.36914 6.0332 49.123 51.695 0 0 0 49.123 51.695 49.123 51.695 0 0 0 49.123-51.695 49.123 51.695 0 0 0-15.236-37.426 49.123 51.695 0 0 0 0.62891-8.1074 49.123 51.695 0 0 0-49.123-51.693 49.123 51.695 0 0 0-15.328 2.6777 49.123 51.695 0 0 0-33.422-13.812zm106.79 180.89a49.123 51.695 0 0 0-49.125 51.693 49.123 51.695 0 0 0 49.125 51.695 49.123 51.695 0 0 0 49.123-51.695 49.123 51.695 0 0 0-49.123-51.693zm18.354 127.61a49.123 51.695 0 0 0-49.123 51.695 49.123 51.695 0 0 0 49.123 51.695 49.123 51.695 0 0 0 49.123-51.695 49.123 51.695 0 0 0-49.123-51.695zm178.27 45.639a49.123 51.695 0 0 0-40.883 23.068 49.123 51.695 0 0 0-35.553-16.092 49.123 51.695 0 0 0-49.123 51.695 49.123 51.695 0 0 0 43.949 50.832 49.123 51.695 0 0 0-1.373 12.055 49.123 51.695 0 0 0 49.125 51.695 49.123 51.695 0 0 0 19.762-4.3809 49.123 51.695 0 0 0 22.805 5.9492 49.123 51.695 0 0 0 49.123-51.695 49.123 51.695 0 0 0-18.877-40.73 49.123 51.695 0 0 0 10.168-30.701 49.123 51.695 0 0 0-49.123-51.695z" fill="#fff" opacity=".1" stroke-width=".47526"/>
<path transform="scale(.26458)" d="m1362.6 606.4a49.123 51.695 0 0 0-21.289 5.1074 49.123 51.695 0 0 0-10.254-1.1406 49.123 51.695 0 0 0-46.648 35.576 49.123 51.695 0 0 0-18.93 20.455 49.123 51.695 0 0 0-13.225-1.9121 49.123 51.695 0 0 0-49.123 51.695 49.123 51.695 0 0 0 49.123 51.695 49.123 51.695 0 0 0 4.3203-0.22266 49.123 51.695 0 0 0 31.918 13.078 49.123 51.695 0 0 0 47.56-41.562 49.123 51.695 0 0 0 23.816 6.5117 49.123 51.695 0 0 0 49.123-51.695 49.123 51.695 0 0 0-1.8711-14.131 49.123 51.695 0 0 0 4.6015-21.76 49.123 51.695 0 0 0-49.123-51.695zm130.73 80.572a49.123 51.695 0 0 0-49.123 51.695 49.123 51.695 0 0 0 32.1 48.461 49.123 51.695 0 0 0-4.8633-0.28125 49.123 51.695 0 0 0-49.123 51.695 49.123 51.695 0 0 0 49.123 51.695 49.123 51.695 0 0 0 0.7656-0.02929 49.123 51.695 0 0 0-3.2617 17.607 49.123 51.695 0 0 0 49.123 51.695 49.123 51.695 0 0 0 8.5371-0.81836 49.123 51.695 0 0 0 48.982 50.199 49.123 51.695 0 0 0 44.654-30.154 49.123 51.695 0 0 0 21.258-6.543 49.123 51.695 0 0 0 28.188 14.471 49.123 51.695 0 0 0 47.527 39.346 49.123 51.695 0 0 0 49.123-51.695 49.123 51.695 0 0 0-42.654-51.229 49.123 51.695 0 0 0-47.701-39.355 49.123 51.695 0 0 0-23.711 6.4531 49.123 51.695 0 0 0-25.627-13.924 49.123 51.695 0 0 0-44.15-29.1 49.123 51.695 0 0 0-36.863 17.869 49.123 51.695 0 0 0-27.562-8.9082 49.123 51.695 0 0 0-0.4824 0.05664 49.123 51.695 0 0 0 2.9805-17.637 49.123 51.695 0 0 0-32.145-48.473 49.123 51.695 0 0 0 4.9063 0.29101 49.123 51.695 0 0 0 49.123-51.693 49.123 51.695 0 0 0-49.123-51.695z" fill="#fff" opacity=".1" stroke-width=".47526"/>
<path transform="scale(.26458)" d="m1323.8 2.8926a49.123 51.695 0 0 0-49.125 51.695 49.123 51.695 0 0 0 24.635 44.604 49.123 51.695 0 0 0-2.9434 3.0254 49.123 51.695 0 0 0-15.121 10.814 49.123 51.695 0 0 0-44.752-30.41 49.123 51.695 0 0 0-49.125 51.695 49.123 51.695 0 0 0 49.125 51.695 49.123 51.695 0 0 0 35.363-15.834 49.123 51.695 0 0 0 31.791 28.338 49.123 51.695 0 0 0-1.8887 14.088 49.123 51.695 0 0 0 49.123 51.695 49.123 51.695 0 0 0 36.236-16.811 49.123 51.695 0 0 0 23.232 6.1856 49.123 51.695 0 0 0 49.123-51.695 49.123 51.695 0 0 0-49.123-51.693 49.123 51.695 0 0 0-36.242 16.816 49.123 51.695 0 0 0-1.2441-0.52929 49.123 51.695 0 0 0 8.4843-29.035 49.123 51.695 0 0 0-24.537-44.75 49.123 51.695 0 0 0 16.111-38.199 49.123 51.695 0 0 0-49.123-51.695z" fill="#fff" opacity=".1" stroke-width=".47526"/>
<path transform="scale(.26458)" d="m2603.6 391.21a49.123 51.695 0 0 0-49.125 51.695 49.123 51.695 0 0 0 2.7949 15.725 49.123 51.695 0 0 0-21.838 42.969 49.123 51.695 0 0 0 49.123 51.695 49.123 51.695 0 0 0 34.201-14.631 49.123 51.695 0 0 0 5.5528 0.76953 49.123 51.695 0 0 0 36.531-17.17 49.123 51.695 0 0 0 48.504 46.752 49.123 51.695 0 0 0 49.123-51.695 49.123 51.695 0 0 0-49.123-51.695 49.123 51.695 0 0 0-36.148 17.076 49.123 51.695 0 0 0-20.586-37.213 49.123 51.695 0 0 0 0.1133-2.582 49.123 51.695 0 0 0-49.123-51.695zm70.555 192.57a49.123 51.695 0 0 0-49.123 51.695 49.123 51.695 0 0 0 47.062 51.613 49.123 51.695 0 0 0 28.693 40.357 49.123 51.695 0 0 0-0.3692 6.0332 49.123 51.695 0 0 0 49.123 51.695 49.123 51.695 0 0 0 49.123-51.695 49.123 51.695 0 0 0-8.539-29.002 49.123 51.695 0 0 0 13.9-16.662 49.123 51.695 0 0 0 16.445 13.779 49.123 51.695 0 0 0-0.0391 0.58594 49.123 51.695 0 0 0 49.125 51.695 49.123 51.695 0 0 0 49.123-51.695 49.123 51.695 0 0 0-27.836-46.516 49.123 51.695 0 0 0 0.0235-0.66602 49.123 51.695 0 0 0-49.125-51.695 49.123 51.695 0 0 0-42.76 26.746 49.123 51.695 0 0 0-37.951-18.877 49.123 51.695 0 0 0-36.773 17.465 49.123 51.695 0 0 0-1.4219-0.0625 49.123 51.695 0 0 0-48.682-44.795z" fill="#fff" opacity=".1" stroke-width=".47526"/>
<path transform="scale(.26458)" d="m2354 1095.7a49.123 51.695 0 0 0-49.123 51.695 49.123 51.695 0 0 0 2.461 16.08 49.123 51.695 0 0 0-7.1328 26.465 49.123 51.695 0 0 0 49.123 51.693 49.123 51.695 0 0 0 49.123-51.693 49.123 51.695 0 0 0-2.3946-15.881 49.123 51.695 0 0 0 7.0664-26.664 49.123 51.695 0 0 0-49.123-51.695zm-67.574 130.85a49.123 51.695 0 0 0-49.125 51.695 49.123 51.695 0 0 0 32.531 48.465 49.123 51.695 0 0 0-3.5762 19.318 49.123 51.695 0 0 0 49.125 51.695 49.123 51.695 0 0 0 41.996-24.895 49.123 51.695 0 0 0 26.869 8.4512 49.123 51.695 0 0 0 38.219-19.273 49.123 51.695 0 0 0 11.775 25.592 49.123 51.695 0 0 0-14.725 36.855 49.123 51.695 0 0 0 49.125 51.695 49.123 51.695 0 0 0 9.9023-1.0781 49.123 51.695 0 0 0 47.77 39.719 49.123 51.695 0 0 0 24.752-7.0508 49.123 51.695 0 0 0 16.865 3.5703 49.123 51.695 0 0 0 49.123-51.695 49.123 51.695 0 0 0-49.123-51.695 49.123 51.695 0 0 0-24.291 6.8066 49.123 51.695 0 0 0-17.326-3.3242 49.123 51.695 0 0 0-9.9375 1.0977 49.123 51.695 0 0 0-11.107-22.488 49.123 51.695 0 0 0 14.691-36.844 49.123 51.695 0 0 0-49.125-51.695 49.123 51.695 0 0 0-27.686 8.9961 49.123 51.695 0 0 0 7.793-27.32 49.123 51.695 0 0 0-49.123-51.695 49.123 51.695 0 0 0-49.123 51.695 49.123 51.695 0 0 0 0.6699 6.2519 49.123 51.695 0 0 0-11.154 13.49 49.123 51.695 0 0 0-10.188-5.4942 49.123 51.695 0 0 0 3.5254-19.15 49.123 51.695 0 0 0-49.123-51.695z" fill="#fff" opacity=".1" stroke-width=".47526"/>
<path transform="scale(.26458)" d="m3599.9 11.078a49.123 51.695 0 0 0-44.785 30.73 49.123 51.695 0 0 0-17.203 39.248 49.123 51.695 0 0 0 0.5527 5.9062 49.123 51.695 0 0 0-4.414 21.34 49.123 51.695 0 0 0 22.578 42.99 49.123 51.695 0 0 0-23.592 44.129 49.123 51.695 0 0 0 49.123 51.695 49.123 51.695 0 0 0 37.35-18.174 49.123 51.695 0 0 0 33.564-48.998 49.123 51.695 0 0 0-0.252-2.8594 49.123 51.695 0 0 0 25.834 10.27 49.123 51.695 0 0 0-5.4375 23.568 49.123 51.695 0 0 0 49.125 51.695 49.123 51.695 0 0 0 49.123-51.695 49.123 51.695 0 0 0-0.3887-6.4844 49.123 51.695 0 0 0 22.725-43.557 49.123 51.695 0 0 0-44.775-51.488 49.123 51.695 0 0 0-46.076-33.789 49.123 51.695 0 0 0-4.4492 0.46094 49.123 51.695 0 0 0-48.076-41.096 49.123 51.695 0 0 0-8.6192 0.83594 49.123 51.695 0 0 0-41.906-24.729zm27.023 120.67a49.123 51.695 0 0 0 6.7617 3.2461 49.123 51.695 0 0 0-0.041 1.1445 49.123 51.695 0 0 0 0.0977 2.7422 49.123 51.695 0 0 0-7.9532-5.2383 49.123 51.695 0 0 0 1.1348-1.8945zm134.37 154.85a49.123 51.695 0 0 0-32.447 13.293 49.123 51.695 0 0 0-25.516-7.5254 49.123 51.695 0 0 0-49.123 51.695 49.123 51.695 0 0 0 49.123 51.693 49.123 51.695 0 0 0 32.762-13.207 49.123 51.695 0 0 0 25.201 7.4414 49.123 51.695 0 0 0 49.123-51.695 49.123 51.695 0 0 0-49.123-51.695z" fill="#fff" opacity=".1" stroke-width=".47526"/>
<path transform="scale(.26458)" d="m961.92 1325.1a49.123 51.695 0 0 0-31.127 11.728 49.123 51.695 0 0 0-22.508-5.7793 49.123 51.695 0 0 0-49.123 51.695 49.123 51.695 0 0 0 49.123 51.695 49.123 51.695 0 0 0 31.119-11.738 49.123 51.695 0 0 0 22.516 5.7871 49.123 51.695 0 0 0 19.012-4.0625 49.123 51.695 0 0 0 7.5488 5.7344 49.123 51.695 0 0 0 19.594 8.7207 49.123 51.695 0 0 0 47.242 38.602 49.123 51.695 0 0 0 28.113-9.3223 49.123 51.695 0 0 0 0.7656 0.0293 49.123 51.695 0 0 0 49.123-51.693 49.123 51.695 0 0 0-47.035-51.629 49.123 51.695 0 0 0-7.3809-0.5879 49.123 51.695 0 0 0-16.85 3.2989 49.123 51.695 0 0 0-23.627-25.998 49.123 51.695 0 0 0-25.506-7.7304 49.123 51.695 0 0 0-18.779 3.9296 49.123 51.695 0 0 0-32.221-12.68z" fill="#fff" opacity=".1" stroke-width=".47526"/>
<path transform="scale(.26458)" d="m1187.7 1926.9a49.123 51.695 0 0 0-30.367 11.074 49.123 51.695 0 0 0-20.863-4.9336 49.123 51.695 0 0 0-49.125 51.693 49.123 51.695 0 0 0 28.859 46.949 49.123 51.695 0 0 0 46.738 35.846 49.123 51.695 0 0 0 15.74-2.9199 49.123 51.695 0 0 0 36.205 16.77 49.123 51.695 0 0 0 49.123-51.695 49.123 51.695 0 0 0-22.668-43.553 49.123 51.695 0 0 0-4.5254-7.7774 49.123 51.695 0 0 0-49.117-51.453z" fill="#fff" opacity=".1" stroke-width=".47526"/>
<path transform="scale(.26458)" d="m2427.2 1795.9a49.123 51.695 0 0 0-42.65 26.061 49.123 51.695 0 0 0-24.377 20.168 49.123 51.695 0 0 0-12.363 3.4004 49.123 51.695 0 0 0-28.109-9.3203 49.123 51.695 0 0 0-34.365 14.82 49.123 51.695 0 0 0-44.494-29.797 49.123 51.695 0 0 0-49.125 51.695 49.123 51.695 0 0 0 49.125 51.693 49.123 51.695 0 0 0 34.514-14.957 49.123 51.695 0 0 0 8.5352 13.613 49.123 51.695 0 0 0 48.705 46.641 49.123 51.695 0 0 0 42.447-25.691 49.123 51.695 0 0 0 32.426-22.631 49.123 51.695 0 0 0 36.242-25.348 49.123 51.695 0 0 0 32.613-48.652 49.123 51.695 0 0 0-49.123-51.695z" fill="#fff" opacity=".1" stroke-width=".47526"/>
<path transform="scale(.26458)" d="m3535 516.96a49.123 51.695 0 0 0-46.881 36.98 49.123 51.695 0 0 0-38.607-19.736 49.123 51.695 0 0 0-49.125 51.695 49.123 51.695 0 0 0 22.527 43.084 49.123 51.695 0 0 0 17.334 24.918 49.123 51.695 0 0 0-8.5996 27.824 49.123 51.695 0 0 0 49.123 51.695 49.123 51.695 0 0 0 16.191-3.1504 49.123 51.695 0 0 0 7.039-0.75976 49.123 51.695 0 0 0 12.301 17.377 49.123 51.695 0 0 0-3.7773 19.504 49.123 51.695 0 0 0 49.123 51.695 49.123 51.695 0 0 0 48.686-44.863 49.123 51.695 0 0 0 29.877-47.525 49.123 51.695 0 0 0-3.7676-19.846 49.123 51.695 0 0 0 0.6524-6.9766 49.123 51.695 0 0 0-6.416-25.121 49.123 51.695 0 0 0 30.625-47.867 49.123 51.695 0 0 0-49.125-51.695 49.123 51.695 0 0 0-30.959 11.58 49.123 51.695 0 0 0 2.9043-17.119 49.123 51.695 0 0 0-49.125-51.693z" fill="#fff" opacity=".1" stroke-width=".47526"/>
<path transform="scale(.26458)" d="m3373.7 1714.5a49.123 51.695 0 0 0-49.123 51.695 49.123 51.695 0 0 0 13.379 35.439 49.123 51.695 0 0 0-26.246 45.543 49.123 51.695 0 0 0 17.476 39.494 49.123 51.695 0 0 0-6.9882 25.984 49.123 51.695 0 0 0 20.74 42.16 49.123 51.695 0 0 0-10.512-1.2383 49.123 51.695 0 0 0-49.123 51.695 49.123 51.695 0 0 0 49.123 51.693 49.123 51.695 0 0 0 10.644-1.3848 49.123 51.695 0 0 0 16.877 18.129 49.123 51.695 0 0 0 21.59 27.844 49.123 51.695 0 0 0-8.0586 28.324 49.123 51.695 0 0 0 49.123 51.695 49.123 51.695 0 0 0 49.123-51.695 49.123 51.695 0 0 0-24.502-44.73 49.123 51.695 0 0 0 7.9863-28.236 49.123 51.695 0 0 0-18.272-40.219 49.123 51.695 0 0 0 41.514-51.06 49.123 51.695 0 0 0-49.123-51.695 49.123 51.695 0 0 0-8.9668 1.0644 49.123 51.695 0 0 0 0.0821-2.3457 49.123 51.695 0 0 0-17.248-39.33 49.123 51.695 0 0 0 6.7598-26.148 49.123 51.695 0 0 0-13.285-35.33 49.123 51.695 0 0 0 26.152-45.652 49.123 51.695 0 0 0-49.123-51.695zm-12.898 248.64a49.123 51.695 0 0 0 10.52 1.2148 49.123 51.695 0 0 0 9.1231-0.9375 49.123 51.695 0 0 0-0.2383 2.2188 49.123 51.695 0 0 0 1.5547 12.459 49.123 51.695 0 0 0-6.9336 1.0957 49.123 51.695 0 0 0-14.025-16.051z" fill="#fff" opacity=".1" stroke-width=".47526"/>
<path transform="scale(.26458)" d="m3289.9 1365a49.123 51.695 0 0 0-48.221 42.027 49.123 51.695 0 0 0-13.356 35.006 49.123 51.695 0 0 0 49.123 51.695 49.123 51.695 0 0 0 48.121-41.514 49.123 51.695 0 0 0 13.455-35.52 49.123 51.695 0 0 0-49.123-51.695zm-12.428 133.46a49.123 51.695 0 0 0-34.629 15.051 49.123 51.695 0 0 0-48.547 51.67 49.123 51.695 0 0 0 49.123 51.695 49.123 51.695 0 0 0 16.43-3.1914 49.123 51.695 0 0 0-0.0449 1.2422 49.123 51.695 0 0 0 49.125 51.695 49.123 51.695 0 0 0 17.83-3.5293 49.123 51.695 0 0 0 39.406 21.129 49.123 51.695 0 0 0 49.123-51.695 49.123 51.695 0 0 0-49.123-51.695 49.123 51.695 0 0 0-17.605 3.5547 49.123 51.695 0 0 0-24.498-18.635 49.123 51.695 0 0 0 2.5332-15.598 49.123 51.695 0 0 0-49.123-51.693z" fill="#fff" opacity=".1" stroke-width=".47526"/>
<path transform="scale(.26458)" d="m2766.8 1515.2a49.123 51.695 0 0 0-49.123 51.693 49.123 51.695 0 0 0 12.445 34.078 49.123 51.695 0 0 0-4.2812 21.024 49.123 51.695 0 0 0 0.8418 9.3398 49.123 51.695 0 0 0-19.529 41.113 49.123 51.695 0 0 0 49.123 51.693 49.123 51.695 0 0 0 49.123-51.693 49.123 51.695 0 0 0-0.8047-9.2617 49.123 51.695 0 0 0 16.244-22.75 49.123 51.695 0 0 0 5.7227-6.541 49.123 51.695 0 0 0 46.158 34.596 49.123 51.695 0 0 0 49.123-51.695 49.123 51.695 0 0 0-49.123-51.693 49.123 51.695 0 0 0-39.18 20.84 49.123 51.695 0 0 0-7.5469-14.592 49.123 51.695 0 0 0-19.832-35.377 49.123 51.695 0 0 0-39.361-20.774z" fill="#fff" opacity=".1" stroke-width=".47526"/>
<path transform="scale(.26458)" d="m2395.9 632.41a49.123 51.695 0 0 0-49.123 51.695 49.123 51.695 0 0 0 8.9883 29.234 49.123 51.695 0 0 0-1.1387 10.986 49.123 51.695 0 0 0 49.123 51.693 49.123 51.695 0 0 0 11.848-1.5527 49.123 51.695 0 0 0-1.9043 12.885 49.123 51.695 0 0 0 9.084 29.611 49.123 51.695 0 0 0-14.648-2.3535 49.123 51.695 0 0 0-49.123 51.695 49.123 51.695 0 0 0 15.012 37.16 49.123 51.695 0 0 0 46.676 36.035 49.123 51.695 0 0 0 49.123-51.695 49.123 51.695 0 0 0-14.812-36.965 49.123 51.695 0 0 0-6.6895-14.262 49.123 51.695 0 0 0 14.504 2.4688 49.123 51.695 0 0 0 48.922-47.285 49.123 51.695 0 0 0 15.088 2.5215 49.123 51.695 0 0 0 49.125-51.695 49.123 51.695 0 0 0-49.125-51.693 49.123 51.695 0 0 0-40.803 23.406 49.123 51.695 0 0 0 0.1054-2.9551 49.123 51.695 0 0 0-46.955-51.643 49.123 51.695 0 0 0-43.275-27.293z" fill="#fff" opacity=".1" stroke-width=".47526"/>
<path transform="scale(.26458)" d="m533.8 1067.4a49.123 51.695 0 0 0-49.123 51.693 49.123 51.695 0 0 0 36.523 49.93 49.123 51.695 0 0 0-0.08398 1.2481 49.123 51.695 0 0 0 49.123 51.695 49.123 51.695 0 0 0 35.027-15.48 49.123 51.695 0 0 0 6.4004 0.4688 49.123 51.695 0 0 0 48.047-41.029 49.123 51.695 0 0 0 22.498 5.7773 49.123 51.695 0 0 0 49.123-51.695 49.123 51.695 0 0 0-49.123-51.695 49.123 51.695 0 0 0-48.041 41.023 49.123 51.695 0 0 0-22.504-5.7715 49.123 51.695 0 0 0-29.189 10.162 49.123 51.695 0 0 0-48.678-46.326z" fill="#fff" opacity=".1" stroke-width=".47526"/>
</g>
</svg>
