<?xml version="1.0" encoding="UTF-8" standalone="no"?>
<!-- Created with Inkscape (http://www.inkscape.org/) -->

<svg
   width="3840"
   height="2160"
   viewBox="0 0 1016 571.5"
   version="1.1"
   id="svg5"
   inkscape:version="1.1.1 (3bf5ae0d25, 2021-09-20)"
   sodipodi:docname="drawing.svg"
   xmlns:inkscape="http://www.inkscape.org/namespaces/inkscape"
   xmlns:sodipodi="http://sodipodi.sourceforge.net/DTD/sodipodi-0.dtd"
   xmlns="http://www.w3.org/2000/svg"
   xmlns:svg="http://www.w3.org/2000/svg">
  <sodipodi:namedview
     id="namedview7"
     pagecolor="#000000"
     bordercolor="#666666"
     borderopacity="1.0"
     inkscape:pageshadow="2"
     inkscape:pageopacity="0"
     inkscape:pagecheckerboard="0"
     inkscape:document-units="mm"
     showgrid="false"
     units="px"
     inkscape:zoom="0.38885732"
     inkscape:cx="1845.1498"
     inkscape:cy="1143.0928"
     inkscape:window-width="2560"
     inkscape:window-height="1369"
     inkscape:window-x="-8"
     inkscape:window-y="-8"
     inkscape:window-maximized="1"
     inkscape:current-layer="layer1" />
  <defs
     id="defs2" />
  <g
     inkscape:label="Layer 1"
     id="layer1"
     style="display:inline"
     inkscape:groupmode="layer">
    <rect
       style="opacity:0.1;fill:none;stroke:#ffffff;stroke-width:0.264583"
       id="rect2654"
       width="1014.4949"
       height="570.86597"
       x="2.0412371"
       y="2.0412371" />
    <ellipse
       style="opacity:0.1;fill:#ffffff;stroke:#ffffff;stroke-width:0.125747"
       id="path5204"
       cx="195.27834"
       cy="375.58765"
       rx="12.997255"
       ry="13.677666" />
    <path
       id="ellipse12901"
       style="opacity:0.1;fill:#ffffff;stroke:#ffffff;stroke-width:0.475264"
       d="M 1384.6484 1562.293 A 49.123485 51.695114 0 0 0 1346.7832 1581.0957 A 49.123484 51.695113 0 0 0 1318.0898 1568.6211 A 49.123483 51.695112 0 0 0 1302.8457 1565.9746 A 49.123483 51.695112 0 0 0 1253.7227 1617.6699 A 49.123483 51.695112 0 0 0 1297.5098 1668.4746 A 49.123484 51.695113 0 0 0 1315.0781 1671.9102 A 49.123484 51.695113 0 0 0 1352.7617 1653.2656 A 49.123485 51.695114 0 0 0 1384.6484 1665.6836 A 49.123485 51.695114 0 0 0 1433.7715 1613.9883 A 49.123485 51.695114 0 0 0 1384.6484 1562.293 z M 1495.2188 1620.5566 A 49.123482 51.695111 0 0 0 1446.0957 1672.252 A 49.123482 51.695111 0 0 0 1495.2188 1723.9473 A 49.123482 51.695111 0 0 0 1544.3418 1672.252 A 49.123482 51.695111 0 0 0 1495.2188 1620.5566 z M 1660.5449 1807.5156 A 49.123481 51.69511 0 0 0 1611.4219 1859.2109 A 49.123481 51.69511 0 0 0 1634.2441 1902.8301 A 49.12348 51.695109 0 0 0 1610.9707 1946.4062 A 49.12348 51.695109 0 0 0 1624.7988 1982.3203 A 49.123479 51.695108 0 0 0 1608.3594 2020.8887 A 49.123479 51.695108 0 0 0 1657.4824 2072.584 A 49.123479 51.695108 0 0 0 1695.2441 2053.9102 A 49.123478 51.695107 0 0 0 1729.2793 2004.7461 A 49.123478 51.695107 0 0 0 1707.0645 1961.5273 A 49.12348 51.695109 0 0 0 1709.2168 1946.4062 A 49.12348 51.695109 0 0 0 1686.6543 1902.957 A 49.123481 51.69511 0 0 0 1709.668 1859.2109 A 49.123481 51.69511 0 0 0 1660.5449 1807.5156 z M 1819.459 2009.209 A 49.123477 51.695106 0 0 0 1770.3359 2060.9043 A 49.123477 51.695106 0 0 0 1774.875 2082.5488 A 49.123476 51.695105 0 0 0 1756.4492 2122.7773 A 49.123476 51.695105 0 0 0 1805.5723 2174.4727 A 49.123476 51.695105 0 0 0 1854.6953 2122.7773 A 49.123476 51.695105 0 0 0 1850.2051 2101.2129 A 49.123477 51.695106 0 0 0 1868.584 2060.9043 A 49.123477 51.695106 0 0 0 1819.459 2009.209 z "
       transform="scale(0.26458333)" />
    <path
       id="ellipse12931"
       style="opacity:0.1;fill:#ffffff;stroke:#ffffff;stroke-width:0.475264"
       d="M 1453.6895 1192.0195 A 49.123477 51.695106 0 0 0 1421.5098 1204.7051 A 49.123476 51.695105 0 0 0 1410.4102 1203.3535 A 49.123476 51.695105 0 0 0 1361.2871 1255.0488 A 49.123476 51.695105 0 0 0 1410.4102 1306.7441 A 49.123476 51.695105 0 0 0 1442.6055 1294.0723 A 49.123477 51.695106 0 0 0 1453.6895 1295.4102 A 49.123477 51.695106 0 0 0 1468.125 1293.1074 A 49.123478 51.695107 0 0 0 1480.4219 1305.9082 A 49.123479 51.695108 0 0 0 1527.4492 1342.709 A 49.123479 51.695108 0 0 0 1576.5723 1291.0137 A 49.123479 51.695108 0 0 0 1555.2246 1248.3789 A 49.123478 51.695107 0 0 0 1508.4355 1211.8984 A 49.123478 51.695107 0 0 0 1493.9922 1214.1836 A 49.123477 51.695106 0 0 0 1453.6895 1192.0195 z M 1745.4453 1343.4492 A 49.12348 51.695109 0 0 0 1696.3203 1395.1445 A 49.12348 51.695109 0 0 0 1701.9238 1418.5059 A 49.123481 51.69511 0 0 0 1701.8184 1421.4473 A 49.123481 51.69511 0 0 0 1750.9414 1473.1426 A 49.123481 51.69511 0 0 0 1800.0664 1421.4473 A 49.123481 51.69511 0 0 0 1794.3125 1397.1836 A 49.12348 51.695109 0 0 0 1794.5684 1395.1445 A 49.12348 51.695109 0 0 0 1745.4453 1343.4492 z M 1993.8887 1484.8652 A 49.123483 51.695112 0 0 0 1955.1367 1504.8203 A 49.123482 51.695111 0 0 0 1907.8125 1556.2168 A 49.123482 51.695111 0 0 0 1956.9355 1607.9102 A 49.123482 51.695111 0 0 0 1995.1523 1588.207 A 49.123483 51.695112 0 0 0 2043.0117 1536.5605 A 49.123483 51.695112 0 0 0 1993.8887 1484.8652 z M 2201.9062 1688.5098 A 49.123484 51.695113 0 0 0 2152.7832 1740.2051 A 49.123484 51.695113 0 0 0 2201.9062 1791.9004 A 49.123484 51.695113 0 0 0 2251.0293 1740.2051 A 49.123484 51.695113 0 0 0 2201.9062 1688.5098 z M 2513.3438 1936.9551 A 49.123485 51.695114 0 0 0 2464.2207 1988.6504 A 49.123485 51.695114 0 0 0 2513.3438 2040.3457 A 49.123485 51.695114 0 0 0 2562.4688 1988.6504 A 49.123485 51.695114 0 0 0 2513.3438 1936.9551 z "
       transform="scale(0.26458333)" />
    <path
       id="ellipse12961"
       style="opacity:0.1;fill:#ffffff;stroke:#ffffff;stroke-width:0.475264"
       d="M 2886.0117 1366.6328 A 49.123485 51.695114 0 0 0 2836.8887 1418.3281 A 49.123485 51.695114 0 0 0 2886.0117 1470.0234 A 49.123485 51.695114 0 0 0 2921.1406 1454.4141 A 49.123484 51.695113 0 0 0 2918.2031 1471.0059 A 49.123484 51.695113 0 0 0 2967.3262 1522.7012 A 49.123484 51.695113 0 0 0 3016.4492 1471.0059 A 49.123484 51.695113 0 0 0 2967.3262 1419.3125 A 49.123484 51.695113 0 0 0 2932.6816 1434.3809 A 49.123485 51.695114 0 0 0 2935.1348 1418.3281 A 49.123485 51.695114 0 0 0 2886.0117 1366.6328 z M 2973.916 1773.041 A 49.123483 51.695112 0 0 0 2924.793 1824.7363 A 49.123483 51.695112 0 0 0 2963.9336 1875.3242 A 49.12348 51.695109 0 0 0 2967.3418 1877.6797 A 49.123478 51.695107 0 0 0 2966.7949 1884.9902 A 49.123478 51.695107 0 0 0 3015.9199 1936.6855 A 49.123478 51.695107 0 0 0 3048.082 1924.0449 A 49.123479 51.695108 0 0 0 3059.1406 1922.4219 A 49.123481 51.69511 0 0 0 3085.375 1930.4531 A 49.123481 51.69511 0 0 0 3134.5 1878.7578 A 49.123481 51.69511 0 0 0 3134.2168 1873.4258 A 49.123482 51.695111 0 0 0 3162.5488 1826.6094 A 49.123482 51.695111 0 0 0 3113.4258 1774.916 A 49.123482 51.695111 0 0 0 3064.3984 1823.918 A 49.123479 51.695108 0 0 0 3047.5742 1820.6758 A 49.123479 51.695108 0 0 0 3038.6211 1821.6602 A 49.12348 51.695109 0 0 0 3001.2988 1781.8223 A 49.123483 51.695112 0 0 0 2973.916 1773.041 z "
       transform="scale(0.26458333)" />
    <path
       id="ellipse12985"
       style="opacity:0.1;fill:#ffffff;stroke:#ffffff;stroke-width:0.475264"
       d="M 3228.5801 933.84766 A 49.123476 51.695105 0 0 0 3179.457 985.54297 A 49.123476 51.695105 0 0 0 3228.5801 1037.2383 A 49.123476 51.695105 0 0 0 3277.7031 985.54297 A 49.123476 51.695105 0 0 0 3228.5801 933.84766 z M 3319.9531 1055.9707 A 49.123477 51.695106 0 0 0 3270.8301 1107.666 A 49.123477 51.695106 0 0 0 3319.9531 1159.3613 A 49.123477 51.695106 0 0 0 3369.0762 1107.666 A 49.123477 51.695106 0 0 0 3319.9531 1055.9707 z M 3472.5176 1135.3809 A 49.123478 51.695107 0 0 0 3428.6211 1164.6699 A 49.123479 51.695108 0 0 0 3380.0508 1216.3418 A 49.123479 51.695108 0 0 0 3429.1758 1268.0371 A 49.123479 51.695108 0 0 0 3473.4531 1238.7266 A 49.123478 51.695107 0 0 0 3521.6426 1187.0742 A 49.123478 51.695107 0 0 0 3472.5176 1135.3809 z M 3546.6973 1326.9551 A 49.12348 51.695109 0 0 0 3497.5742 1378.6504 A 49.12348 51.695109 0 0 0 3546.6973 1430.3457 A 49.12348 51.695109 0 0 0 3595.8203 1378.6504 A 49.12348 51.695109 0 0 0 3546.6973 1326.9551 z M 3660.5352 1330.7715 A 49.123481 51.69511 0 0 0 3611.4121 1382.4668 A 49.123481 51.69511 0 0 0 3660.5352 1434.1621 A 49.123481 51.69511 0 0 0 3709.6582 1382.4668 A 49.123481 51.69511 0 0 0 3660.5352 1330.7715 z M 3677.8574 1729.7227 A 49.123483 51.695112 0 0 0 3658.6543 1734.4062 A 49.123484 51.695113 0 0 0 3614.6191 1785.7891 A 49.123484 51.695113 0 0 0 3617.1816 1802.1719 A 49.123482 51.695111 0 0 0 3617.0762 1802.7344 A 49.123482 51.695111 0 0 0 3666.1992 1854.4297 A 49.123482 51.695111 0 0 0 3697.082 1842.4922 A 49.123485 51.695114 0 0 0 3704.6914 1843.127 A 49.123485 51.695114 0 0 0 3753.8145 1791.4316 A 49.123485 51.695114 0 0 0 3706.8867 1739.791 A 49.123483 51.695112 0 0 0 3677.8574 1729.7227 z "
       transform="scale(0.26458333)" />
    <path
       id="ellipse13348"
       style="opacity:0.1;fill:#ffffff;stroke:#ffffff;stroke-width:0.475264"
       d="M 2880.1602 47.236328 A 49.123478 51.695107 0 0 0 2831.0371 98.931641 A 49.123478 51.695107 0 0 0 2865.9883 148.40234 A 49.123479 51.695108 0 0 0 2914.6582 193.2793 A 49.123479 51.695108 0 0 0 2963.7812 141.58398 A 49.123479 51.695108 0 0 0 2928.8398 92.09375 A 49.123478 51.695107 0 0 0 2880.1602 47.236328 z M 2986.1465 184.37695 A 49.123481 51.69511 0 0 0 2937.0234 236.07227 A 49.123481 51.69511 0 0 0 2986.1465 287.76758 A 49.123481 51.69511 0 0 0 3009.6719 281.41797 A 49.12348 51.695109 0 0 0 3048.9746 308.78125 A 49.123483 51.695112 0 0 0 3097.5195 352.60742 A 49.123483 51.695112 0 0 0 3146.6426 300.91211 A 49.123483 51.695112 0 0 0 3101.6113 249.40039 A 49.12348 51.695109 0 0 0 3053.166 206.00977 A 49.12348 51.695109 0 0 0 3029.8418 212.45703 A 49.123481 51.69511 0 0 0 2986.1465 184.37695 z M 3099.9863 370.29102 A 49.123482 51.695111 0 0 0 3050.8633 421.98633 A 49.123482 51.695111 0 0 0 3099.9863 473.68164 A 49.123482 51.695111 0 0 0 3149.1113 421.98633 A 49.123482 51.695111 0 0 0 3099.9863 370.29102 z M 3207.1152 521.3125 A 49.123484 51.695113 0 0 0 3157.9922 573.00781 A 49.123484 51.695113 0 0 0 3207.1152 624.70312 A 49.123484 51.695113 0 0 0 3256.2383 573.00781 A 49.123484 51.695113 0 0 0 3207.1152 521.3125 z M 3282.0898 658.47266 A 49.123485 51.695114 0 0 0 3232.9668 710.16602 A 49.123485 51.695114 0 0 0 3282.0898 761.86133 A 49.123485 51.695114 0 0 0 3331.2129 710.16602 A 49.123485 51.695114 0 0 0 3282.0898 658.47266 z "
       transform="scale(0.26458333)" />
    <path
       id="ellipse13372"
       style="opacity:0.1;fill:#ffffff;stroke:#ffffff;stroke-width:0.475264"
       d="M 1951.041 30.732422 A 49.123476 51.695105 0 0 0 1915.7871 46.470703 A 49.123475 51.695104 0 0 0 1884.3809 34.503906 A 49.123475 51.695104 0 0 0 1835.2578 86.199219 A 49.123475 51.695104 0 0 0 1884.3809 137.89453 A 49.123475 51.695104 0 0 0 1919.6465 122.15234 A 49.123476 51.695105 0 0 0 1931.7871 129.78125 A 49.123477 51.695106 0 0 0 1927.6465 150.46484 A 49.123477 51.695106 0 0 0 1936.6094 180.19336 A 49.123474 51.695103 0 0 0 1985.5273 229.68359 A 49.123474 51.695103 0 0 0 2007.1738 224.20508 A 49.123479 51.695108 0 0 0 2042.5547 240.07617 A 49.123479 51.695108 0 0 0 2091.6777 188.38086 A 49.123479 51.695108 0 0 0 2066.2598 143.10547 A 49.123478 51.695107 0 0 0 2017.166 92.353516 A 49.123478 51.695107 0 0 0 1997.9336 96.517578 A 49.123476 51.695105 0 0 0 2000.1641 82.427734 A 49.123476 51.695105 0 0 0 1951.041 30.732422 z M 2047.0957 258.4375 A 49.12348 51.695109 0 0 0 1997.9727 310.13281 A 49.12348 51.695109 0 0 0 2047.0957 361.82812 A 49.12348 51.695109 0 0 0 2096.2207 310.13281 A 49.12348 51.695109 0 0 0 2047.0957 258.4375 z M 2287.918 329.69336 A 49.123482 51.695111 0 0 0 2238.7949 381.38867 A 49.123482 51.695111 0 0 0 2287.918 433.08398 A 49.123482 51.695111 0 0 0 2337.041 381.38867 A 49.123482 51.695111 0 0 0 2287.918 329.69336 z M 2286.3438 446.34375 A 49.123481 51.69511 0 0 0 2237.2207 498.03906 A 49.123481 51.69511 0 0 0 2286.3438 549.73438 A 49.123481 51.69511 0 0 0 2335.4668 498.03906 A 49.123481 51.69511 0 0 0 2286.3438 446.34375 z M 2721.1582 882.33984 A 49.123484 51.695113 0 0 0 2672.0332 934.03516 A 49.123484 51.695113 0 0 0 2721.1582 985.73047 A 49.123484 51.695113 0 0 0 2770.2812 934.03516 A 49.123484 51.695113 0 0 0 2721.1582 882.33984 z M 2827.625 903.86133 A 49.123483 51.695112 0 0 0 2778.502 955.55664 A 49.123483 51.695112 0 0 0 2827.625 1007.252 A 49.123483 51.695112 0 0 0 2876.748 955.55664 A 49.123483 51.695112 0 0 0 2827.625 903.86133 z M 2977.7266 964.36914 A 49.123485 51.695114 0 0 0 2928.6035 1016.0645 A 49.123485 51.695114 0 0 0 2977.7266 1067.7598 A 49.123485 51.695114 0 0 0 3026.8496 1016.0645 A 49.123485 51.695114 0 0 0 2977.7266 964.36914 z "
       transform="scale(0.26458333)" />
    <path
       id="ellipse13408"
       style="opacity:0.1;fill:#ffffff;stroke:#ffffff;stroke-width:0.475264"
       d="M 1306.2246 317.23633 A 49.123485 51.695114 0 0 0 1257.0996 368.93164 A 49.123485 51.695114 0 0 0 1306.2246 420.62695 A 49.123485 51.695114 0 0 0 1355.3477 368.93164 A 49.123485 51.695114 0 0 0 1306.2246 317.23633 z M 1603.75 410.18164 A 49.123484 51.695113 0 0 0 1554.627 461.87695 A 49.123484 51.695113 0 0 0 1603.75 513.57227 A 49.123484 51.695113 0 0 0 1652.873 461.87695 A 49.123484 51.695113 0 0 0 1603.75 410.18164 z M 1736.8672 606.67383 A 49.123482 51.695111 0 0 0 1687.7441 658.36914 A 49.123482 51.695111 0 0 0 1736.8672 710.06445 A 49.123482 51.695111 0 0 0 1785.9922 658.36914 A 49.123482 51.695111 0 0 0 1736.8672 606.67383 z M 1857.6387 619.27539 A 49.123483 51.695112 0 0 0 1808.5156 670.9707 A 49.123483 51.695112 0 0 0 1857.6387 722.66602 A 49.123483 51.695112 0 0 0 1906.7617 670.9707 A 49.123483 51.695112 0 0 0 1857.6387 619.27539 z M 2055.5176 736.37891 A 49.12348 51.695109 0 0 0 2006.3945 788.07422 A 49.12348 51.695109 0 0 0 2024.0664 827.62305 A 49.123481 51.69511 0 0 0 2021.543 843.89258 A 49.123481 51.69511 0 0 0 2070.666 895.58789 A 49.123481 51.69511 0 0 0 2119.7891 843.89258 A 49.123481 51.69511 0 0 0 2102.1719 804.23438 A 49.12348 51.695109 0 0 0 2104.6406 788.07422 A 49.12348 51.695109 0 0 0 2055.5176 736.37891 z M 2203.9375 856.27539 A 49.123478 51.695107 0 0 0 2154.8145 907.9707 A 49.123478 51.695107 0 0 0 2203.9375 959.66602 A 49.123478 51.695107 0 0 0 2253.0605 907.9707 A 49.123478 51.695107 0 0 0 2203.9375 856.27539 z M 2077.2676 919.77344 A 49.123479 51.695108 0 0 0 2028.1445 971.46875 A 49.123479 51.695108 0 0 0 2077.2676 1023.1641 A 49.123479 51.695108 0 0 0 2126.3906 971.46875 A 49.123479 51.695108 0 0 0 2077.2676 919.77344 z "
       transform="scale(0.26458333)" />
    <path
       id="ellipse13432"
       style="opacity:0.1;fill:#ffffff;stroke:#ffffff;stroke-width:0.475264"
       d="M 344.38672 103.64062 A 49.123477 51.695106 0 0 0 295.26172 155.33594 A 49.123477 51.695106 0 0 0 344.38672 207.03125 A 49.123477 51.695106 0 0 0 389.2207 176.37695 A 49.123476 51.695105 0 0 0 388.89258 181.20117 A 49.123476 51.695105 0 0 0 408.29688 222.21875 A 49.123479 51.695108 0 0 0 454.90625 257.67578 A 49.123479 51.695108 0 0 0 473.91602 253.61523 A 49.123478 51.695107 0 0 0 465.38867 282.17969 A 49.123478 51.695107 0 0 0 514.51367 333.875 A 49.123478 51.695107 0 0 0 563.63672 282.17969 A 49.123478 51.695107 0 0 0 514.51367 230.48438 A 49.123478 51.695107 0 0 0 495.75781 234.66211 A 49.123479 51.695108 0 0 0 504.0293 205.98047 A 49.123479 51.695108 0 0 0 484.56055 164.77344 A 49.123476 51.695105 0 0 0 438.01562 129.50586 A 49.123476 51.695105 0 0 0 393.31055 159.78906 A 49.123477 51.695106 0 0 0 393.50977 155.33594 A 49.123477 51.695106 0 0 0 344.38672 103.64062 z M 656.46875 397.18945 A 49.123481 51.69511 0 0 0 607.3457 448.88477 A 49.123481 51.69511 0 0 0 656.46875 500.57812 A 49.123481 51.69511 0 0 0 705.59375 448.88477 A 49.123481 51.69511 0 0 0 656.46875 397.18945 z M 558.68945 415.53516 A 49.12348 51.695109 0 0 0 509.56641 467.23047 A 49.12348 51.695109 0 0 0 558.68945 518.92578 A 49.12348 51.695109 0 0 0 607.8125 467.23047 A 49.12348 51.695109 0 0 0 558.68945 415.53516 z M 833.40625 689.95898 A 49.123483 51.695112 0 0 0 784.2832 741.6543 A 49.123483 51.695112 0 0 0 822.35938 792.01953 A 49.123482 51.695111 0 0 0 821.66016 796.67188 A 49.123482 51.695111 0 0 0 870.7832 848.36719 A 49.123482 51.695111 0 0 0 919.9082 796.67188 A 49.123482 51.695111 0 0 0 882.29492 746.43164 A 49.123483 51.695112 0 0 0 882.5293 741.6543 A 49.123483 51.695112 0 0 0 833.40625 689.95898 z M 1035.4082 956.19922 A 49.123484 51.695113 0 0 0 986.28516 1007.8945 A 49.123484 51.695113 0 0 0 1035.4082 1059.5898 A 49.123484 51.695113 0 0 0 1084.5312 1007.8945 A 49.123484 51.695113 0 0 0 1035.4082 956.19922 z M 1133.7246 978.14258 A 49.123485 51.695114 0 0 0 1084.6016 1029.8379 A 49.123485 51.695114 0 0 0 1133.7246 1081.5332 A 49.123485 51.695114 0 0 0 1182.8496 1029.8379 A 49.123485 51.695114 0 0 0 1133.7246 978.14258 z "
       transform="scale(0.26458333)" />
    <path
       id="ellipse13801"
       style="opacity:0.1;fill:#ffffff;stroke:#ffffff;stroke-width:0.475264"
       d="M 68.746094 906.68555 A 49.123462 51.695091 0 0 0 19.623047 958.38086 A 49.123462 51.695091 0 0 0 40.710938 1000.2324 A 49.123469 51.695098 0 0 0 40.367188 1002.6133 A 49.123468 51.695097 0 0 0 25.632812 1039.2598 A 49.123468 51.695097 0 0 0 45.947266 1081.0879 A 49.123467 51.695096 0 0 0 66.40625 1093.377 A 49.123465 51.695094 0 0 0 66.962891 1094.0625 A 49.123466 51.695095 0 0 0 65.289062 1107.3047 A 49.123466 51.695095 0 0 0 114.41211 1159 A 49.123466 51.695095 0 0 0 163.53516 1107.3047 A 49.123466 51.695095 0 0 0 161.29492 1091.873 A 49.123464 51.695093 0 0 0 186.29297 1047.0645 A 49.123464 51.695093 0 0 0 137.16797 995.36914 A 49.123464 51.695093 0 0 0 136.42773 995.45508 A 49.123469 51.695098 0 0 0 117.02734 966.65625 A 49.123462 51.695091 0 0 0 117.86914 958.38086 A 49.123462 51.695091 0 0 0 68.746094 906.68555 z M 215.72266 1169.5703 A 49.12347 51.695099 0 0 0 166.59961 1221.2656 A 49.12347 51.695099 0 0 0 215.72266 1272.9609 A 49.12347 51.695099 0 0 0 235.87109 1268.3535 A 49.123472 51.695101 0 0 0 277.45117 1292.5879 A 49.123472 51.695101 0 0 0 326.57422 1240.8926 A 49.123472 51.695101 0 0 0 277.45117 1189.1973 A 49.123472 51.695101 0 0 0 257.2793 1193.793 A 49.12347 51.695099 0 0 0 215.72266 1169.5703 z M 341.77734 1320.9316 A 49.123473 51.695102 0 0 0 292.6543 1372.627 A 49.123473 51.695102 0 0 0 333.18164 1422.8906 A 49.123474 51.695103 0 0 0 293.9082 1473.5059 A 49.123474 51.695103 0 0 0 343.03125 1525.1992 A 49.123474 51.695103 0 0 0 392.1543 1473.5059 A 49.123474 51.695103 0 0 0 353.04492 1422.8965 A 49.123473 51.695102 0 0 0 390.90234 1372.627 A 49.123473 51.695102 0 0 0 341.77734 1320.9316 z M 240.54883 1335.666 A 49.123471 51.6951 0 0 0 191.42578 1387.3613 A 49.123471 51.6951 0 0 0 240.54883 1439.0566 A 49.123471 51.6951 0 0 0 289.67188 1387.3613 A 49.123471 51.6951 0 0 0 240.54883 1335.666 z M 455.33984 1506.752 A 49.123478 51.695107 0 0 0 406.21484 1558.4473 A 49.123478 51.695107 0 0 0 406.28711 1560.4453 A 49.123476 51.695105 0 0 0 381.73242 1553.4258 A 49.123476 51.695105 0 0 0 373.07031 1554.2695 A 49.123475 51.695104 0 0 0 341.05078 1541.6816 A 49.123475 51.695104 0 0 0 291.92773 1593.377 A 49.123475 51.695104 0 0 0 341.05078 1645.0723 A 49.123475 51.695104 0 0 0 349.625 1644.1973 A 49.123476 51.695105 0 0 0 381.73242 1656.8164 A 49.123476 51.695105 0 0 0 430.85547 1605.1211 A 49.123476 51.695105 0 0 0 430.74414 1603.1953 A 49.123478 51.695107 0 0 0 455.33984 1610.1426 A 49.123478 51.695107 0 0 0 504.46289 1558.4473 A 49.123478 51.695107 0 0 0 455.33984 1506.752 z M 545.23633 1607.2031 A 49.123477 51.695106 0 0 0 496.11328 1658.8984 A 49.123477 51.695106 0 0 0 500.00391 1677.9434 A 49.123479 51.695108 0 0 0 496.95117 1677.8379 A 49.123479 51.695108 0 0 0 447.82812 1729.5332 A 49.123479 51.695108 0 0 0 496.95117 1781.2285 A 49.123479 51.695108 0 0 0 546.07422 1729.5332 A 49.123479 51.695108 0 0 0 542.48242 1710.1328 A 49.123477 51.695106 0 0 0 545.23633 1710.5918 A 49.123477 51.695106 0 0 0 574.62891 1699.207 A 49.123481 51.69511 0 0 0 573 1712.2773 A 49.123481 51.69511 0 0 0 622.12305 1763.9707 A 49.123481 51.69511 0 0 0 671.24609 1712.2773 A 49.123481 51.69511 0 0 0 622.12305 1660.582 A 49.123481 51.69511 0 0 0 591.98047 1671.4844 A 49.123477 51.695106 0 0 0 594.35938 1658.8984 A 49.123477 51.695106 0 0 0 545.23633 1607.2031 z M 847.4668 1714.1016 A 49.123483 51.695112 0 0 0 807.35352 1736 A 49.123482 51.695111 0 0 0 799.60352 1735.3008 A 49.123482 51.695111 0 0 0 750.48047 1786.9961 A 49.123482 51.695111 0 0 0 799.60352 1838.6914 A 49.123482 51.695111 0 0 0 839.60352 1816.8066 A 49.123483 51.695112 0 0 0 847.4668 1817.4922 A 49.123483 51.695112 0 0 0 896.5918 1765.7969 A 49.123483 51.695112 0 0 0 847.4668 1714.1016 z M 931.86133 1787.2383 A 49.123484 51.695113 0 0 0 882.73828 1838.9336 A 49.123484 51.695113 0 0 0 885.92773 1855.8125 A 49.123485 51.695114 0 0 0 879.56055 1855.375 A 49.123485 51.695114 0 0 0 830.4375 1907.0703 A 49.123485 51.695114 0 0 0 879.56055 1958.7656 A 49.123485 51.695114 0 0 0 928.68555 1907.0703 A 49.123485 51.695114 0 0 0 925.70312 1889.3398 A 49.123484 51.695113 0 0 0 931.86133 1890.6289 A 49.123484 51.695113 0 0 0 980.98438 1838.9336 A 49.123484 51.695113 0 0 0 931.86133 1787.2383 z M 691.26562 1801.5801 A 49.12348 51.695109 0 0 0 642.14258 1853.2754 A 49.12348 51.695109 0 0 0 691.26562 1904.9707 A 49.12348 51.695109 0 0 0 740.38867 1853.2754 A 49.12348 51.695109 0 0 0 691.26562 1801.5801 z "
       transform="scale(0.26458333)" />
    <path
       id="ellipse13873"
       style="opacity:0.1;fill:#ffffff;stroke:#ffffff;stroke-width:0.475264"
       d="M 221.88281 1791.1094 A 49.123482 51.695111 0 0 0 172.75977 1842.8047 A 49.123482 51.695111 0 0 0 172.78906 1843.0391 A 49.123484 51.695113 0 0 0 167.29297 1866.7246 A 49.123484 51.695113 0 0 0 193.7832 1912.334 A 49.123485 51.695114 0 0 0 227.64258 1926.6035 A 49.123485 51.695114 0 0 0 276.76562 1874.9082 A 49.123485 51.695114 0 0 0 270.27148 1849.2285 A 49.123482 51.695111 0 0 0 271.00781 1842.8047 A 49.123482 51.695111 0 0 0 221.88281 1791.1094 z M 136.51562 1875.3652 A 49.123483 51.695112 0 0 0 87.390625 1927.0605 A 49.123483 51.695112 0 0 0 136.51562 1978.7539 A 49.123483 51.695112 0 0 0 185.63867 1927.0605 A 49.123483 51.695112 0 0 0 136.51562 1875.3652 z M 313.16211 1915.3672 A 49.12348 51.695109 0 0 0 264.03711 1967.0625 A 49.12348 51.695109 0 0 0 279.49609 2004.6914 A 49.123478 51.695107 0 0 0 291.19727 2027.1445 A 49.123479 51.695108 0 0 0 289.22852 2041.5449 A 49.123479 51.695108 0 0 0 338.35156 2093.2402 A 49.123479 51.695108 0 0 0 386.22461 2053.1211 A 49.123477 51.695106 0 0 0 394.92188 2042.7754 A 49.123472 51.695101 0 0 0 397.25 2046.5195 A 49.123474 51.695103 0 0 0 383.41016 2082.4453 A 49.123474 51.695103 0 0 0 421.7207 2132.7539 A 49.123476 51.695105 0 0 0 450.05078 2142.248 A 49.123476 51.695105 0 0 0 499.17383 2090.5527 A 49.123476 51.695105 0 0 0 474.25 2045.5703 A 49.123472 51.695101 0 0 0 478.6875 2038.584 A 49.123471 51.6951 0 0 0 501.19336 1995.1523 A 49.123471 51.6951 0 0 0 452.07031 1943.457 A 49.123471 51.6951 0 0 0 442.97461 1944.4844 A 49.123473 51.695102 0 0 0 430.00195 1942.6445 A 49.123473 51.695102 0 0 0 426.82617 1942.9375 A 49.123475 51.695104 0 0 0 384.23828 1916.998 A 49.123475 51.695104 0 0 0 349.75 1932.5723 A 49.12348 51.695109 0 0 0 313.16211 1915.3672 z M 194.75977 1969.5332 A 49.123481 51.69511 0 0 0 145.63672 2021.2266 A 49.123481 51.69511 0 0 0 194.75977 2072.9219 A 49.123481 51.69511 0 0 0 243.88281 2021.2266 A 49.123481 51.69511 0 0 0 194.75977 1969.5332 z "
       transform="scale(0.26458333)" />
    <path
       id="ellipse13918"
       style="opacity:0.1;fill:#ffffff;stroke:#ffffff;stroke-width:0.475264"
       d="M 209.55078 416.49023 A 49.123475 51.695104 0 0 0 177.63477 429.09766 A 49.123476 51.695105 0 0 0 145.74219 477.48438 A 49.123476 51.695105 0 0 0 181.85547 527.28906 A 49.123478 51.695107 0 0 0 169.82227 525.65039 A 49.123478 51.695107 0 0 0 120.69922 577.3457 A 49.123478 51.695107 0 0 0 162.55664 628.46875 A 49.123477 51.695106 0 0 0 209.45508 665.63086 A 49.123477 51.695106 0 0 0 258.57812 613.93555 A 49.123477 51.695106 0 0 0 216.97656 562.86719 A 49.123478 51.695107 0 0 0 182.63281 527.48438 A 49.123476 51.695105 0 0 0 194.86523 529.17969 A 49.123476 51.695105 0 0 0 224.1543 518.81836 A 49.123479 51.695108 0 0 0 223.78516 524.85156 A 49.123479 51.695108 0 0 0 272.9082 576.54688 A 49.123479 51.695108 0 0 0 322.03125 524.85156 A 49.123479 51.695108 0 0 0 306.79492 487.42578 A 49.123474 51.695103 0 0 0 307.42383 479.31836 A 49.123474 51.695103 0 0 0 258.30078 427.625 A 49.123474 51.695103 0 0 0 242.97266 430.30273 A 49.123475 51.695104 0 0 0 209.55078 416.49023 z M 316.3418 597.38086 A 49.12348 51.695109 0 0 0 267.2168 649.07422 A 49.12348 51.695109 0 0 0 316.3418 700.76953 A 49.12348 51.695109 0 0 0 365.46484 649.07422 A 49.12348 51.695109 0 0 0 316.3418 597.38086 z M 334.69531 724.99023 A 49.123481 51.69511 0 0 0 285.57227 776.68555 A 49.123481 51.69511 0 0 0 334.69531 828.38086 A 49.123481 51.69511 0 0 0 383.81836 776.68555 A 49.123481 51.69511 0 0 0 334.69531 724.99023 z M 512.96289 770.62891 A 49.123483 51.695112 0 0 0 472.08008 793.69727 A 49.123482 51.695111 0 0 0 436.52734 777.60547 A 49.123482 51.695111 0 0 0 387.4043 829.30078 A 49.123482 51.695111 0 0 0 431.35352 880.13281 A 49.123484 51.695113 0 0 0 429.98047 892.1875 A 49.123484 51.695113 0 0 0 479.10547 943.88281 A 49.123484 51.695113 0 0 0 498.86719 939.50195 A 49.123485 51.695114 0 0 0 521.67188 945.45117 A 49.123485 51.695114 0 0 0 570.79492 893.75586 A 49.123485 51.695114 0 0 0 551.91797 853.02539 A 49.123483 51.695112 0 0 0 562.08594 822.32422 A 49.123483 51.695112 0 0 0 512.96289 770.62891 z "
       transform="scale(0.26458333)" />
    <path
       id="ellipse13954"
       style="opacity:0.1;fill:#ffffff;stroke:#ffffff;stroke-width:0.475264"
       d="M 1362.6094 606.40234 A 49.123481 51.69511 0 0 0 1341.3203 611.50977 A 49.12348 51.695109 0 0 0 1331.0664 610.36914 A 49.12348 51.695109 0 0 0 1284.418 645.94531 A 49.123483 51.695112 0 0 0 1265.4883 666.40039 A 49.123484 51.695113 0 0 0 1252.2637 664.48828 A 49.123484 51.695113 0 0 0 1203.1406 716.18359 A 49.123484 51.695113 0 0 0 1252.2637 767.87891 A 49.123484 51.695113 0 0 0 1256.584 767.65625 A 49.123482 51.695111 0 0 0 1288.502 780.73438 A 49.123482 51.695111 0 0 0 1336.0625 739.17188 A 49.123485 51.695114 0 0 0 1359.8789 745.68359 A 49.123485 51.695114 0 0 0 1409.002 693.98828 A 49.123485 51.695114 0 0 0 1407.1309 679.85742 A 49.123481 51.69511 0 0 0 1411.7324 658.09766 A 49.123481 51.69511 0 0 0 1362.6094 606.40234 z M 1493.3379 686.97461 A 49.123479 51.695108 0 0 0 1444.2148 738.66992 A 49.123479 51.695108 0 0 0 1476.3145 787.13086 A 49.123478 51.695107 0 0 0 1471.4512 786.84961 A 49.123478 51.695107 0 0 0 1422.3281 838.54492 A 49.123478 51.695107 0 0 0 1471.4512 890.24023 A 49.123478 51.695107 0 0 0 1472.2168 890.21094 A 49.123477 51.695106 0 0 0 1468.9551 907.81836 A 49.123477 51.695106 0 0 0 1518.0781 959.51367 A 49.123477 51.695106 0 0 0 1526.6152 958.69531 A 49.123472 51.695101 0 0 0 1575.5977 1008.8945 A 49.123472 51.695101 0 0 0 1620.252 978.74023 A 49.123475 51.695104 0 0 0 1641.5098 972.19727 A 49.123476 51.695105 0 0 0 1669.6973 986.66797 A 49.123473 51.695102 0 0 0 1717.2246 1026.0137 A 49.123473 51.695102 0 0 0 1766.3477 974.31836 A 49.123473 51.695102 0 0 0 1723.6934 923.08984 A 49.123476 51.695105 0 0 0 1675.9922 883.73438 A 49.123476 51.695105 0 0 0 1652.2812 890.1875 A 49.123475 51.695104 0 0 0 1626.6543 876.26367 A 49.123474 51.695103 0 0 0 1582.5039 847.16406 A 49.123474 51.695103 0 0 0 1545.6406 865.0332 A 49.123477 51.695106 0 0 0 1518.0781 856.125 A 49.123477 51.695106 0 0 0 1517.5957 856.18164 A 49.123478 51.695107 0 0 0 1520.5762 838.54492 A 49.123478 51.695107 0 0 0 1488.4316 790.07227 A 49.123479 51.695108 0 0 0 1493.3379 790.36328 A 49.123479 51.695108 0 0 0 1542.4609 738.66992 A 49.123479 51.695108 0 0 0 1493.3379 686.97461 z "
       transform="scale(0.26458333)" />
    <path
       id="ellipse13996"
       style="opacity:0.1;fill:#ffffff;stroke:#ffffff;stroke-width:0.475264"
       d="M 1323.7793 2.8925781 A 49.123482 51.695111 0 0 0 1274.6543 54.587891 A 49.123482 51.695111 0 0 0 1299.2891 99.191406 A 49.123485 51.695114 0 0 0 1296.3457 102.2168 A 49.123481 51.69511 0 0 0 1281.2246 113.03125 A 49.12348 51.695109 0 0 0 1236.4727 82.621094 A 49.12348 51.695109 0 0 0 1187.3477 134.31641 A 49.12348 51.695109 0 0 0 1236.4727 186.01172 A 49.12348 51.695109 0 0 0 1271.8359 170.17773 A 49.123481 51.69511 0 0 0 1303.627 198.51562 A 49.123483 51.695112 0 0 0 1301.7383 212.60352 A 49.123483 51.695112 0 0 0 1350.8613 264.29883 A 49.123483 51.695112 0 0 0 1387.0977 247.48828 A 49.123484 51.695113 0 0 0 1410.3301 253.67383 A 49.123484 51.695113 0 0 0 1459.4531 201.97852 A 49.123484 51.695113 0 0 0 1410.3301 150.28516 A 49.123484 51.695113 0 0 0 1374.0879 167.10156 A 49.123483 51.695112 0 0 0 1372.8438 166.57227 A 49.123485 51.695114 0 0 0 1381.3281 137.53711 A 49.123485 51.695114 0 0 0 1356.791 92.787109 A 49.123482 51.695111 0 0 0 1372.9023 54.587891 A 49.123482 51.695111 0 0 0 1323.7793 2.8925781 z "
       transform="scale(0.26458333)" />
    <path
       id="ellipse14014"
       style="opacity:0.1;fill:#ffffff;stroke:#ffffff;stroke-width:0.475264"
       d="M 2603.6465 391.20508 A 49.123483 51.695112 0 0 0 2554.5215 442.90039 A 49.123483 51.695112 0 0 0 2557.3164 458.625 A 49.123485 51.695114 0 0 0 2535.4785 501.59375 A 49.123485 51.695114 0 0 0 2584.6016 553.28906 A 49.123485 51.695114 0 0 0 2618.8027 538.6582 A 49.123484 51.695113 0 0 0 2624.3555 539.42773 A 49.123484 51.695113 0 0 0 2660.8867 522.25781 A 49.123481 51.69511 0 0 0 2709.3906 569.00977 A 49.123481 51.69511 0 0 0 2758.5137 517.31445 A 49.123481 51.69511 0 0 0 2709.3906 465.61914 A 49.123481 51.69511 0 0 0 2673.2422 482.69531 A 49.123484 51.695113 0 0 0 2652.6562 445.48242 A 49.123483 51.695112 0 0 0 2652.7695 442.90039 A 49.123483 51.695112 0 0 0 2603.6465 391.20508 z M 2674.2012 583.77539 A 49.123482 51.695111 0 0 0 2625.0781 635.4707 A 49.123482 51.695111 0 0 0 2672.1406 687.08398 A 49.123478 51.695107 0 0 0 2700.834 727.44141 A 49.123479 51.695108 0 0 0 2700.4648 733.47461 A 49.123479 51.695108 0 0 0 2749.5879 785.16992 A 49.123479 51.695108 0 0 0 2798.7109 733.47461 A 49.123479 51.695108 0 0 0 2790.1719 704.47266 A 49.12348 51.695109 0 0 0 2804.0723 687.81055 A 49.123477 51.695106 0 0 0 2820.5176 701.58984 A 49.123476 51.695105 0 0 0 2820.4785 702.17578 A 49.123476 51.695105 0 0 0 2869.6035 753.87109 A 49.123476 51.695105 0 0 0 2918.7266 702.17578 A 49.123476 51.695105 0 0 0 2890.8906 655.66016 A 49.123477 51.695106 0 0 0 2890.9141 654.99414 A 49.123477 51.695106 0 0 0 2841.7891 603.29883 A 49.123477 51.695106 0 0 0 2799.0293 630.04492 A 49.12348 51.695109 0 0 0 2761.0781 611.16797 A 49.12348 51.695109 0 0 0 2724.3047 628.63281 A 49.123478 51.695107 0 0 0 2722.8828 628.57031 A 49.123482 51.695111 0 0 0 2674.2012 583.77539 z "
       transform="scale(0.26458333)" />
    <path
       id="ellipse14044"
       style="opacity:0.1;fill:#ffffff;stroke:#ffffff;stroke-width:0.475264"
       d="M 2354.0176 1095.6738 A 49.123478 51.695107 0 0 0 2304.8945 1147.3691 A 49.123478 51.695107 0 0 0 2307.3555 1163.4492 A 49.123477 51.695106 0 0 0 2300.2227 1189.9141 A 49.123477 51.695106 0 0 0 2349.3457 1241.6074 A 49.123477 51.695106 0 0 0 2398.4688 1189.9141 A 49.123477 51.695106 0 0 0 2396.0742 1174.0332 A 49.123478 51.695107 0 0 0 2403.1406 1147.3691 A 49.123478 51.695107 0 0 0 2354.0176 1095.6738 z M 2286.4434 1226.5234 A 49.123476 51.695105 0 0 0 2237.3184 1278.2188 A 49.123476 51.695105 0 0 0 2269.8496 1326.6836 A 49.123479 51.695108 0 0 0 2266.2734 1346.002 A 49.123479 51.695108 0 0 0 2315.3984 1397.6973 A 49.123479 51.695108 0 0 0 2357.3945 1372.8027 A 49.123481 51.69511 0 0 0 2384.2637 1381.2539 A 49.123481 51.69511 0 0 0 2422.4824 1361.9805 A 49.123482 51.695111 0 0 0 2434.2578 1387.5723 A 49.123484 51.695113 0 0 0 2419.5332 1424.4277 A 49.123484 51.695113 0 0 0 2468.6582 1476.123 A 49.123484 51.695113 0 0 0 2478.5605 1475.0449 A 49.123485 51.695114 0 0 0 2526.3301 1514.7637 A 49.123485 51.695114 0 0 0 2551.082 1507.7129 A 49.123483 51.695112 0 0 0 2567.9473 1511.2832 A 49.123483 51.695112 0 0 0 2617.0703 1459.5879 A 49.123483 51.695112 0 0 0 2567.9473 1407.8926 A 49.123483 51.695112 0 0 0 2543.6562 1414.6992 A 49.123485 51.695114 0 0 0 2526.3301 1411.375 A 49.123485 51.695114 0 0 0 2516.3926 1412.4727 A 49.123484 51.695113 0 0 0 2505.2852 1389.9844 A 49.123482 51.695111 0 0 0 2519.9766 1353.1406 A 49.123482 51.695111 0 0 0 2470.8516 1301.4453 A 49.123482 51.695111 0 0 0 2443.166 1310.4414 A 49.12348 51.695109 0 0 0 2450.959 1283.1211 A 49.12348 51.695109 0 0 0 2401.8359 1231.4258 A 49.12348 51.695109 0 0 0 2352.7129 1283.1211 A 49.12348 51.695109 0 0 0 2353.3828 1289.373 A 49.123481 51.69511 0 0 0 2342.2285 1302.8633 A 49.123479 51.695108 0 0 0 2332.041 1297.3691 A 49.123476 51.695105 0 0 0 2335.5664 1278.2188 A 49.123476 51.695105 0 0 0 2286.4434 1226.5234 z "
       transform="scale(0.26458333)" />
    <path
       id="ellipse14074"
       style="opacity:0.1;fill:#ffffff;stroke:#ffffff;stroke-width:0.475264"
       d="M 3599.9141 11.078125 A 49.123475 51.695104 0 0 0 3555.1289 41.808594 A 49.123476 51.695105 0 0 0 3537.9258 81.056641 A 49.123476 51.695105 0 0 0 3538.4785 86.962891 A 49.123478 51.695107 0 0 0 3534.0645 108.30273 A 49.123478 51.695107 0 0 0 3556.6426 151.29297 A 49.123481 51.69511 0 0 0 3533.0508 195.42188 A 49.123481 51.69511 0 0 0 3582.1738 247.11719 A 49.123481 51.69511 0 0 0 3619.5234 228.94336 A 49.123479 51.695108 0 0 0 3653.0879 179.94531 A 49.123479 51.695108 0 0 0 3652.8359 177.08594 A 49.12348 51.695109 0 0 0 3678.6699 187.35547 A 49.123483 51.695112 0 0 0 3673.2324 210.92383 A 49.123483 51.695112 0 0 0 3722.3574 262.61914 A 49.123483 51.695112 0 0 0 3771.4805 210.92383 A 49.123483 51.695112 0 0 0 3771.0918 204.43945 A 49.123482 51.695111 0 0 0 3793.8164 160.88281 A 49.123482 51.695111 0 0 0 3749.041 109.39453 A 49.123474 51.695103 0 0 0 3702.9648 75.605469 A 49.123474 51.695103 0 0 0 3698.5156 76.066406 A 49.123477 51.695106 0 0 0 3650.4395 34.970703 A 49.123477 51.695106 0 0 0 3641.8203 35.806641 A 49.123475 51.695104 0 0 0 3599.9141 11.078125 z M 3626.9375 131.74805 A 49.123477 51.695106 0 0 0 3633.6992 134.99414 A 49.12348 51.695109 0 0 0 3633.6582 136.13867 A 49.12348 51.695109 0 0 0 3633.7559 138.88086 A 49.123479 51.695108 0 0 0 3625.8027 133.64258 A 49.123478 51.695107 0 0 0 3626.9375 131.74805 z M 3761.3086 286.5957 A 49.123484 51.695113 0 0 0 3728.8613 299.88867 A 49.123485 51.695114 0 0 0 3703.3457 292.36328 A 49.123485 51.695114 0 0 0 3654.2227 344.05859 A 49.123485 51.695114 0 0 0 3703.3457 395.75195 A 49.123485 51.695114 0 0 0 3736.1074 382.54492 A 49.123484 51.695113 0 0 0 3761.3086 389.98633 A 49.123484 51.695113 0 0 0 3810.4316 338.29102 A 49.123484 51.695113 0 0 0 3761.3086 286.5957 z "
       transform="scale(0.26458333)" />
    <path
       id="ellipse14110"
       style="opacity:0.1;fill:#ffffff;stroke:#ffffff;stroke-width:0.475264"
       d="M 961.91602 1325.1309 A 49.123485 51.695114 0 0 0 930.78906 1336.8594 A 49.123484 51.695113 0 0 0 908.28125 1331.0801 A 49.123484 51.695113 0 0 0 859.1582 1382.7754 A 49.123484 51.695113 0 0 0 908.28125 1434.4707 A 49.123484 51.695113 0 0 0 939.40039 1422.7324 A 49.123485 51.695114 0 0 0 961.91602 1428.5195 A 49.123485 51.695114 0 0 0 980.92773 1424.457 A 49.123481 51.69511 0 0 0 988.47656 1430.1914 A 49.123483 51.695112 0 0 0 1008.0703 1438.9121 A 49.123479 51.695108 0 0 0 1055.3125 1477.5137 A 49.123479 51.695108 0 0 0 1083.4258 1468.1914 A 49.12348 51.695109 0 0 0 1084.1914 1468.2207 A 49.12348 51.695109 0 0 0 1133.3145 1416.5273 A 49.12348 51.695109 0 0 0 1086.2793 1364.8984 A 49.123482 51.695111 0 0 0 1078.8984 1364.3105 A 49.123482 51.695111 0 0 0 1062.0488 1367.6094 A 49.123483 51.695112 0 0 0 1038.4219 1341.6113 A 49.123481 51.69511 0 0 0 1012.916 1333.8809 A 49.123481 51.69511 0 0 0 994.13672 1337.8105 A 49.123485 51.695114 0 0 0 961.91602 1325.1309 z "
       transform="scale(0.26458333)" />
    <path
       id="ellipse14131"
       style="opacity:0.1;fill:#ffffff;stroke:#ffffff;stroke-width:0.475264"
       d="M 1187.6738 1926.8789 A 49.123481 51.69511 0 0 0 1157.3066 1937.9531 A 49.12348 51.695109 0 0 0 1136.4434 1933.0195 A 49.12348 51.695109 0 0 0 1087.3184 1984.7129 A 49.12348 51.695109 0 0 0 1116.1777 2031.6621 A 49.123483 51.695112 0 0 0 1162.916 2067.5078 A 49.123483 51.695112 0 0 0 1178.6562 2064.5879 A 49.123485 51.695114 0 0 0 1214.8613 2081.3574 A 49.123485 51.695114 0 0 0 1263.9844 2029.6621 A 49.123485 51.695114 0 0 0 1241.3164 1986.1094 A 49.123484 51.695113 0 0 0 1236.791 1978.332 A 49.123481 51.69511 0 0 0 1187.6738 1926.8789 z "
       transform="scale(0.26458333)" />
    <path
       id="ellipse14149"
       style="opacity:0.1;fill:#ffffff;stroke:#ffffff;stroke-width:0.475264"
       d="M 2427.25 1795.8613 A 49.123483 51.695112 0 0 0 2384.5996 1821.9219 A 49.12348 51.695109 0 0 0 2360.2227 1842.0898 A 49.123485 51.695114 0 0 0 2347.8594 1845.4902 A 49.123482 51.695111 0 0 0 2319.75 1836.1699 A 49.123482 51.695111 0 0 0 2285.3848 1850.9902 A 49.123484 51.695113 0 0 0 2240.8906 1821.1934 A 49.123484 51.695113 0 0 0 2191.7656 1872.8887 A 49.123484 51.695113 0 0 0 2240.8906 1924.582 A 49.123484 51.695113 0 0 0 2275.4043 1909.625 A 49.123482 51.695111 0 0 0 2283.9395 1923.2383 A 49.123481 51.69511 0 0 0 2332.6445 1969.8789 A 49.123481 51.69511 0 0 0 2375.0918 1944.1875 A 49.123485 51.695114 0 0 0 2407.5176 1921.5566 A 49.12348 51.695109 0 0 0 2443.7598 1896.209 A 49.123483 51.695112 0 0 0 2476.373 1847.5566 A 49.123483 51.695112 0 0 0 2427.25 1795.8613 z "
       transform="scale(0.26458333)" />
    <path
       id="ellipse14491"
       style="opacity:0.1;fill:#ffffff;stroke:#ffffff;stroke-width:0.475264"
       d="M 3534.9883 516.96094 A 49.123482 51.695111 0 0 0 3488.1074 553.94141 A 49.123484 51.695113 0 0 0 3449.5 534.20508 A 49.123484 51.695113 0 0 0 3400.375 585.90039 A 49.123484 51.695113 0 0 0 3422.9023 628.98438 A 49.123485 51.695114 0 0 0 3440.2363 653.90234 A 49.123474 51.695103 0 0 0 3431.6367 681.72656 A 49.123474 51.695103 0 0 0 3480.7598 733.42188 A 49.123474 51.695103 0 0 0 3496.9512 730.27148 A 49.123479 51.695108 0 0 0 3503.9902 729.51172 A 49.123477 51.695106 0 0 0 3516.291 746.88867 A 49.123476 51.695105 0 0 0 3512.5137 766.39258 A 49.123476 51.695105 0 0 0 3561.6367 818.08789 A 49.123476 51.695105 0 0 0 3610.3223 773.22461 A 49.123478 51.695107 0 0 0 3640.1992 725.69922 A 49.123478 51.695107 0 0 0 3636.4316 705.85352 A 49.123473 51.695102 0 0 0 3637.084 698.87695 A 49.123473 51.695102 0 0 0 3630.668 673.75586 A 49.123483 51.695112 0 0 0 3661.293 625.88867 A 49.123483 51.695112 0 0 0 3612.168 574.19336 A 49.123483 51.695112 0 0 0 3581.209 585.77344 A 49.123482 51.695111 0 0 0 3584.1133 568.6543 A 49.123482 51.695111 0 0 0 3534.9883 516.96094 z "
       transform="scale(0.26458333)" />
    <path
       id="ellipse14920"
       style="opacity:0.1;fill:#ffffff;stroke:#ffffff;stroke-width:0.475264"
       d="M 3373.6992 1714.4551 A 49.123485 51.695114 0 0 0 3324.5762 1766.1504 A 49.123485 51.695114 0 0 0 3337.9551 1801.5898 A 49.123484 51.695113 0 0 0 3311.709 1847.1328 A 49.123484 51.695113 0 0 0 3329.1855 1886.627 A 49.123483 51.695112 0 0 0 3322.1973 1912.6113 A 49.123483 51.695112 0 0 0 3342.9375 1954.7715 A 49.12348 51.695109 0 0 0 3332.4258 1953.5332 A 49.12348 51.695109 0 0 0 3283.3027 2005.2285 A 49.12348 51.695109 0 0 0 3332.4258 2056.9219 A 49.12348 51.695109 0 0 0 3343.0703 2055.5371 A 49.123482 51.695111 0 0 0 3359.9473 2073.666 A 49.123478 51.695107 0 0 0 3381.5371 2101.5098 A 49.123479 51.695108 0 0 0 3373.4785 2129.834 A 49.123479 51.695108 0 0 0 3422.6016 2181.5293 A 49.123479 51.695108 0 0 0 3471.7246 2129.834 A 49.123479 51.695108 0 0 0 3447.2227 2085.1035 A 49.123478 51.695107 0 0 0 3455.209 2056.8672 A 49.123478 51.695107 0 0 0 3436.9375 2016.6484 A 49.123481 51.69511 0 0 0 3478.4512 1965.5879 A 49.123481 51.69511 0 0 0 3429.3281 1913.8926 A 49.123481 51.69511 0 0 0 3420.3613 1914.957 A 49.123483 51.695112 0 0 0 3420.4434 1912.6113 A 49.123483 51.695112 0 0 0 3403.1953 1873.2812 A 49.123484 51.695113 0 0 0 3409.9551 1847.1328 A 49.123484 51.695113 0 0 0 3396.6699 1811.8027 A 49.123485 51.695114 0 0 0 3422.8223 1766.1504 A 49.123485 51.695114 0 0 0 3373.6992 1714.4551 z M 3360.8008 1963.0918 A 49.123483 51.695112 0 0 0 3371.3203 1964.3066 A 49.123483 51.695112 0 0 0 3380.4434 1963.3691 A 49.123481 51.69511 0 0 0 3380.2051 1965.5879 A 49.123481 51.69511 0 0 0 3381.7598 1978.0469 A 49.123482 51.695111 0 0 0 3374.8262 1979.1426 A 49.12348 51.695109 0 0 0 3360.8008 1963.0918 z "
       transform="scale(0.26458333)" />
    <path
       id="ellipse14944"
       style="opacity:0.1;fill:#ffffff;stroke:#ffffff;stroke-width:0.475264"
       d="M 3289.9375 1364.9805 A 49.123485 51.695114 0 0 0 3241.7168 1407.0078 A 49.123484 51.695113 0 0 0 3228.3613 1442.0137 A 49.123484 51.695113 0 0 0 3277.4844 1493.709 A 49.123484 51.695113 0 0 0 3325.6055 1452.1953 A 49.123485 51.695114 0 0 0 3339.0605 1416.6758 A 49.123485 51.695114 0 0 0 3289.9375 1364.9805 z M 3277.5098 1498.4414 A 49.123481 51.69511 0 0 0 3242.8809 1513.4922 A 49.123482 51.695111 0 0 0 3194.334 1565.1621 A 49.123482 51.695111 0 0 0 3243.457 1616.8574 A 49.123482 51.695111 0 0 0 3259.8867 1613.666 A 49.123483 51.695112 0 0 0 3259.8418 1614.9082 A 49.123483 51.695112 0 0 0 3308.9668 1666.6035 A 49.123483 51.695112 0 0 0 3326.7969 1663.0742 A 49.12348 51.695109 0 0 0 3366.2031 1684.2031 A 49.12348 51.695109 0 0 0 3415.3262 1632.5078 A 49.12348 51.695109 0 0 0 3366.2031 1580.8125 A 49.12348 51.695109 0 0 0 3348.5977 1584.3672 A 49.123483 51.695112 0 0 0 3324.0996 1565.7324 A 49.123481 51.69511 0 0 0 3326.6328 1550.1348 A 49.123481 51.69511 0 0 0 3277.5098 1498.4414 z "
       transform="scale(0.26458333)" />
    <path
       id="ellipse14962"
       style="opacity:0.1;fill:#ffffff;stroke:#ffffff;stroke-width:0.475264"
       d="M 2766.7676 1515.1816 A 49.12348 51.695109 0 0 0 2717.6445 1566.875 A 49.12348 51.695109 0 0 0 2730.0898 1600.9531 A 49.123485 51.695114 0 0 0 2725.8086 1621.9766 A 49.123485 51.695114 0 0 0 2726.6504 1631.3164 A 49.123484 51.695113 0 0 0 2707.1211 1672.4297 A 49.123484 51.695113 0 0 0 2756.2441 1724.123 A 49.123484 51.695113 0 0 0 2805.3672 1672.4297 A 49.123484 51.695113 0 0 0 2804.5625 1663.168 A 49.123485 51.695114 0 0 0 2820.8066 1640.418 A 49.123482 51.695111 0 0 0 2826.5293 1633.877 A 49.123481 51.69511 0 0 0 2872.6875 1668.4727 A 49.123481 51.69511 0 0 0 2921.8105 1616.7773 A 49.123481 51.69511 0 0 0 2872.6875 1565.084 A 49.123481 51.69511 0 0 0 2833.5078 1585.9238 A 49.123482 51.695111 0 0 0 2825.9609 1571.332 A 49.123479 51.695108 0 0 0 2806.1289 1535.9551 A 49.12348 51.695109 0 0 0 2766.7676 1515.1816 z "
       transform="scale(0.26458333)" />
    <path
       id="ellipse14983"
       style="opacity:0.1;fill:#ffffff;stroke:#ffffff;stroke-width:0.475264"
       d="M 2395.8516 632.4082 A 49.123483 51.695112 0 0 0 2346.7285 684.10352 A 49.123483 51.695112 0 0 0 2355.7168 713.33789 A 49.123485 51.695114 0 0 0 2354.5781 724.32422 A 49.123485 51.695114 0 0 0 2403.7012 776.01758 A 49.123485 51.695114 0 0 0 2415.5488 774.46484 A 49.123479 51.695108 0 0 0 2413.6445 787.34961 A 49.123479 51.695108 0 0 0 2422.7285 816.96094 A 49.123481 51.69511 0 0 0 2408.0801 814.60742 A 49.123481 51.69511 0 0 0 2358.957 866.30273 A 49.123481 51.69511 0 0 0 2373.9688 903.46289 A 49.12348 51.695109 0 0 0 2420.6445 939.49805 A 49.12348 51.695109 0 0 0 2469.7676 887.80273 A 49.12348 51.695109 0 0 0 2454.9551 850.83789 A 49.123481 51.69511 0 0 0 2448.2656 836.57617 A 49.123479 51.695108 0 0 0 2462.7695 839.04492 A 49.123479 51.695108 0 0 0 2511.6914 791.75977 A 49.123482 51.695111 0 0 0 2526.7793 794.28125 A 49.123482 51.695111 0 0 0 2575.9043 742.58594 A 49.123482 51.695111 0 0 0 2526.7793 690.89258 A 49.123482 51.695111 0 0 0 2485.9766 714.29883 A 49.123484 51.695113 0 0 0 2486.082 711.34375 A 49.123484 51.695113 0 0 0 2439.127 659.70117 A 49.123483 51.695112 0 0 0 2395.8516 632.4082 z "
       transform="scale(0.26458333)" />
    <path
       id="ellipse15004"
       style="opacity:0.1;fill:#ffffff;stroke:#ffffff;stroke-width:0.475264"
       d="M 533.80273 1067.3887 A 49.123483 51.695112 0 0 0 484.67969 1119.082 A 49.123483 51.695112 0 0 0 521.20312 1169.0117 A 49.123482 51.695111 0 0 0 521.11914 1170.2598 A 49.123482 51.695111 0 0 0 570.24219 1221.9551 A 49.123482 51.695111 0 0 0 605.26953 1206.4746 A 49.123484 51.695113 0 0 0 611.66992 1206.9434 A 49.123484 51.695113 0 0 0 659.7168 1165.9141 A 49.123485 51.695114 0 0 0 682.21484 1171.6914 A 49.123485 51.695114 0 0 0 731.33789 1119.9961 A 49.123485 51.695114 0 0 0 682.21484 1068.3008 A 49.123485 51.695114 0 0 0 634.17383 1109.3242 A 49.123484 51.695113 0 0 0 611.66992 1103.5527 A 49.123484 51.695113 0 0 0 582.48047 1113.7148 A 49.123483 51.695112 0 0 0 533.80273 1067.3887 z "
       transform="scale(0.26458333)" />
  </g>
</svg>
