<?xml version="1.0" encoding="UTF-8"?>
<svg version="1.1" viewBox="0 0 327.28 377.92" width="70" height="70" xmlns="http://www.w3.org/2000/svg">
<g transform="translate(-5.6203 -149.1)">
<text x="38.079636" y="413.65085" fill="#ffffff" font-family="sans-serif" font-size="40px" style="line-height:1.25" xml:space="preserve"><tspan/></text>
<g transform="matrix(.66667 0 0 .67541 28.56 116.75)" fill="#fff" stroke-width="1.4903" aria-label="T">
<path transform="matrix(1.5 0 0 1.4806 -42.84 -172.86)" d="m169.01 157.76 155.89 90.272 0.5 180.56-156.39 89.772-155.89-90.272v-180.56z" fill="transparent" stroke="#fff" stroke-width="15"/>
<path transform="matrix(1.5 0 0 1.4806 -42.84 -172.86)" d="m12.53 248.54 156.48 89.516 154.27-88.964" fill="none" stroke="#fff" stroke-width="20"/>
<path transform="matrix(1.5 0 0 1.4806 -42.84 -172.86)" d="m169.01 338.06-0.55243 179.03" fill="none" stroke="#fff" stroke-width="20"/>
<path transform="matrix(.5918 0 0 .58415 137.38 163.83)" d="m404.42 442.45-146.34 84.487v-168.97l146.34-84.487v19.973l-116.8 67.434v46.301l116.8-67.435v19.973l-116.8 67.435v62.755l116.8-67.434z" fill="#fff" stroke-width="3.7772"/>
<g transform="matrix(.68856 0 0 .67965 27.775 137.71)" stroke-width="3.2465" aria-label="T">
<path d="m160.52 377.94-61.688-35.616v149l-22.959-13.256v-149l-61.688-35.616v-19.973l146.34 84.487z"/>
</g>
</g>
</g>
</svg>
