<?xml version="1.0" encoding="UTF-8"?>
<svg width="9.5mm" height="9.2mm" preserveAspectRatio="none" version="1.1" viewBox="48 74 35.906 34.772" xmlns="http://www.w3.org/2000/svg">
<g transform="matrix(.9888 0 0 .9888 -11.272 -12.488)">
<path d="m95.18 104.7a16.933 16.933 0 0 1-16.933 16.933 16.933 16.933 0 0 1-16.933-16.933 16.933 16.933 0 0 1 16.933-16.933 16.933 16.933 0 0 1 16.933 16.933z"/>
</g>
<path d="m75.151 105.12c-2.7019 1.7365-5.9119 2.6716-9.1236 2.6579-3.2117-0.0137-6.4137-0.97614-9.1007-2.7356-2.687-1.7594-4.8494-4.3094-6.1461-7.2478-1.2967-2.9384-1.723-6.2545-1.2116-9.4253 0.62682-3.8869 2.6762-7.5284 5.6736-10.081 2.9974-2.5528 6.9187-3.9964 10.856-3.9964-2.1761 2.2872-3.7539 5.1387-4.5358 8.1973s-0.76612 6.3175 0.04537 9.3684c0.85228 3.2043 2.5819 6.1705 4.9509 8.4904 2.3689 2.3199 5.3707 3.9872 8.5921 4.7722z" fill="#fff"/>
</svg>
