<?xml version="1.0" encoding="UTF-8" standalone="no"?>
<svg
   preserveAspectRatio="none"
   viewBox="48 74 35.905512 34.771642"
   version="1.1"
   id="svg31"
   sodipodi:docname="moon.svg"
   width="9.5mm"
   height="9.1999998mm"
   inkscape:version="1.1.1 (3bf5ae0d25, 2021-09-20)"
   xmlns:inkscape="http://www.inkscape.org/namespaces/inkscape"
   xmlns:sodipodi="http://sodipodi.sourceforge.net/DTD/sodipodi-0.dtd"
   xmlns="http://www.w3.org/2000/svg"
   xmlns:svg="http://www.w3.org/2000/svg">
  <sodipodi:namedview
     id="namedview33"
     pagecolor="#373737"
     bordercolor="#666666"
     borderopacity="1.0"
     inkscape:pageshadow="2"
     inkscape:pageopacity="1"
     inkscape:pagecheckerboard="true"
     showgrid="false"
     units="px"
     width="65px"
     inkscape:zoom="8"
     inkscape:cx="31.375"
     inkscape:cy="23.8125"
     inkscape:window-width="2145"
     inkscape:window-height="1297"
     inkscape:window-x="222"
     inkscape:window-y="56"
     inkscape:window-maximized="0"
     inkscape:current-layer="svg31"
     lock-margins="false"
     inkscape:document-units="mm"
     inkscape:object-paths="true"
     inkscape:snap-intersection-paths="false"
     inkscape:snap-nodes="true"
     inkscape:snap-smooth-nodes="true"
     inkscape:snap-path-clip="false"
     inkscape:snap-midpoints="false"
     inkscape:object-nodes="true"
     inkscape:showpageshadow="true"
     showborder="false"
     scale-x="1e-05" />
  <defs
     id="defs25">
    <inkscape:path-effect
       effect="spiro"
       id="path-effect6608"
       is_visible="true"
       lpeversion="1" />
  </defs>
  <g
     id="g953"
     transform="matrix(0.9887973,0,0,0.98879724,-11.271877,-12.487576)"
     style="stroke:none;stroke-width:1.01129">
    <g
       id="g863"
       style="stroke:none;stroke-width:1.01129">
      <g
         id="g855"
         style="stroke:none;stroke-width:1.01129">
        <g
           id="g851"
           style="stroke:none;stroke-width:1.01129">
          <path
             id="circle27"
             style="opacity:1;stroke:none;stroke-width:0.267569;stroke-opacity:1"
             d="m 95.180002,104.698 a 16.933001,16.933001 0 0 1 -16.933,16.933 16.933001,16.933001 0 0 1 -16.933001,-16.933 16.933001,16.933001 0 0 1 16.933001,-16.933003 16.933001,16.933001 0 0 1 16.933,16.933003 z" />
        </g>
      </g>
    </g>
  </g>
  <path
     style="fill:#ffffff;stroke:none;stroke-width:1px;stroke-linecap:butt;stroke-linejoin:miter;stroke-opacity:1"
     d="m 75.151096,105.1226 c -2.701883,1.73646 -5.911886,2.67161 -9.123627,2.65794 -3.211741,-0.0137 -6.413663,-0.97614 -9.100658,-2.73555 -2.686994,-1.75941 -4.849393,-4.30945 -6.146075,-7.247826 -1.296682,-2.938382 -1.72298,-6.254539 -1.211646,-9.425344 0.626821,-3.886944 2.676204,-7.528407 5.673614,-10.081205 2.99741,-2.552797 6.918681,-3.996351 10.855843,-3.996404 -2.1761,2.287164 -3.753936,5.138678 -4.535835,8.197299 -0.781899,3.058621 -0.766115,6.317524 0.04537,9.368428 0.852283,3.204279 2.581948,6.170538 4.950885,8.490432 2.368937,2.3199 5.370722,3.98715 8.592126,4.77223 z"
     id="path6606"
     sodipodi:nodetypes="cscsc"
     inkscape:original-d="m 75.151096,105.1226 c 0,0 -633.102336,-185.781134 -25.582006,-16.75078 C 59.013734,90.999603 66.098547,74.294211 66.098547,74.294211 146.55696,272.56671 -50843.957,100870.88 61.608085,91.859938 196.71221,-175.60904 171.21182,63.096037 75.151096,105.1226 Z"
     inkscape:path-effect="#path-effect6608" />
</svg>
