<?xml version="1.0" encoding="UTF-8"?>
<svg width="3840" height="2160" version="1.1" viewBox="0 0 1016 571.5" xmlns="http://www.w3.org/2000/svg">
<g fill="#fff" stroke-width=".26458">
<circle cx="840.68" cy="324.34" r=".5" opacity=".5"/>
<circle cx="375.73" cy="163.05" r=".5"/>
<circle cx="195.55" cy="101.61" r=".5"/>
<circle cx="260.53" cy="159.51" r=".5"/>
<circle cx="219.18" cy="226.27" r=".5"/>
<circle cx="317.84" cy="206.18" r=".5"/>
<circle cx="792.23" cy="368.05" r=".5" opacity=".3"/>
<circle cx="254.63" cy="132.93" r=".25"/>
<circle cx="381.64" cy="194.96" r=".25"/>
<circle cx="628.88" cy="259.06" r=".25"/>
<circle cx="338.35" cy="398.06" r=".25" opacity=".1"/>
<circle cx="483.85" cy="484.44" r=".25" opacity=".05"/>
<circle cx="415.17" cy="379.87" r=".25" opacity=".1"/>
<circle cx="392.42" cy="348.26" r=".25" opacity=".5"/>
<circle cx="529.59" cy="251.39" r=".5"/>
<circle cx="517.19" cy="366" r=".25" opacity=".3"/>
<circle cx="608.17" cy="174" r=".25"/>
<circle cx="478.19" cy="349.46" r=".25" opacity=".5"/>
<circle cx="446.63" cy="363.92" r=".25" opacity=".3"/>
<circle cx="446.04" cy="327.29" r=".25" opacity=".5"/>
<circle cx="426.54" cy="306.61" r=".25" opacity=".5"/>
<circle cx="193.78" cy="367.17" r=".25" opacity=".3"/>
<circle cx="118.75" cy="333.49" r=".25" opacity=".5"/>
<circle cx="174.87" cy="324.34" r=".25" opacity=".5"/>
<circle cx="194.37" cy="299.52" r=".25" opacity=".5"/>
<circle cx="89.798" cy="340.29" r=".25" opacity=".5"/>
<circle cx="67.939" cy="385.19" r=".25" opacity=".1"/>
<circle cx="220.95" cy="464.94" r=".25" opacity=".1"/>
<circle cx="251.08" cy="427.13" r=".25" opacity=".1"/>
<circle cx="161.28" cy="93.934" r=".25"/>
<circle cx="212.09" cy="44.308" r=".25"/>
<circle cx="152.42" cy="34.856" r=".25"/>
<circle cx="177.23" cy="77.983" r=".25"/>
<circle cx="199.09" cy="22.45" r=".25"/>
<circle cx="424.18" cy="173.1" r=".25"/>
<circle cx="711.3" cy="28.948" r=".25"/>
<circle cx="417.68" cy="554.74" r=".25" opacity=".05"/>
<circle cx="533.47" cy="387.55" r=".25" opacity=".1"/>
<circle cx="277.07" cy="526.97" r=".25" opacity=".05"/>
<circle cx="206.18" cy="557.1" r=".25" opacity=".05"/>
<circle cx="223.31" cy="528.75" r=".25" opacity=".05"/>
<circle cx="256.4" cy="471.44" r=".25" opacity=".05"/>
<circle cx="500.98" cy="181.96" r=".25"/>
<circle cx="410.59" cy="155.37" r=".25"/>
<circle cx="425.36" cy="26.585" r=".25"/>
<circle cx="698.3" cy="262.9" r=".25"/>
<circle cx="56.715" cy="224.5" r=".25"/>
<circle cx="87.435" cy="213.27" r=".25"/>
<circle cx="153.01" cy="256.4" r=".25"/>
<circle cx="123.47" cy="245.76" r=".25"/>
<circle cx="364.51" cy="292.44" r=".25" opacity=".5"/>
<circle cx="497.44" cy="119.04" r=".25"/>
<circle cx="465.53" cy="152.72" r=".25"/>
<circle cx="345.61" cy="136.77" r=".25"/>
<circle cx="208.54" cy="206.48" r=".25"/>
<circle cx="546.47" cy="423.29" r=".25" opacity=".1"/>
<circle cx="359.19" cy="508.36" r=".25" opacity=".05"/>
<circle cx="707.75" cy="327" r=".25" opacity=".5"/>
<circle cx="680.58" cy="349.45" r=".25" opacity=".5"/>
<circle cx="995.46" cy="313.41" r=".25" opacity=".5"/>
<circle cx="968.28" cy="335.86" r=".25" opacity=".5"/>
<circle cx="909.21" cy="313.41" r=".25" opacity=".5"/>
<circle cx="838.31" cy="348.26" r=".25" opacity=".5"/>
<circle cx="576.6" cy="25.108" r=".25"/>
<circle cx="564.78" cy="62.327" r=".25"/>
<circle cx="606.73" cy="72.37" r=".25"/>
<circle cx="447.22" cy="200.57" r=".25"/>
<circle cx="369.83" cy="149.17" r=".25"/>
<circle cx="342.06" cy="178.71" r=".25"/>
<circle cx="622.68" cy="297.75" r=".25" opacity=".5"/>
<circle cx="528.75" cy="226.86" r=".25"/>
<circle cx="562.42" cy="209.73" r=".25"/>
<circle cx="323.75" cy="70.45" r=".25"/>
<circle cx="375.73" cy="80.493" r=".25"/>
<circle cx="105.16" cy="538.94" r=".25" opacity=".05"/>
<circle cx="158.92" cy="540.12" r=".25" opacity=".05"/>
<circle cx="185.5" cy="508.22" r=".25" opacity=".05"/>
<circle cx="791.05" cy="400.4" r=".25" opacity=".1"/>
<circle cx="768.01" cy="195.1" r=".25"/>
<circle cx="840.09" cy="419.6" r=".25" opacity=".1"/>
<circle cx="556.51" cy="316.8" r=".25" opacity=".5"/>
<circle cx="608.5" cy="210.17" r=".25"/>
<circle cx="590.19" cy="247.98" r=".25"/>
<circle cx="105.75" cy="20.677" r=".25"/>
<circle cx="763.88" cy="437.77" r=".25" opacity=".1"/>
<circle cx="723.7" cy="399.96" r=".25" opacity=".1"/>
<circle cx="645.72" cy="324.34" r=".25" opacity=".5"/>
<circle cx="729.02" cy="342.65" r=".25" opacity=".5"/>
<circle cx="749.11" cy="307.2" r=".25" opacity=".5"/>
<circle cx="752.65" cy="288.3" r=".25" opacity=".5"/>
<circle cx="776.87" cy="310.16" r=".25" opacity=".5"/>
<circle cx="754.42" cy="257.58" r=".25"/>
<circle cx="823.54" cy="262.31" r=".25"/>
<circle cx="810.55" cy="210.32" r=".25"/>
<circle cx="967.69" cy="255.81" r=".25"/>
<circle cx="957.65" cy="175.46" r=".25"/>
<circle cx="794.6" cy="474.99" r=".25" opacity=".05"/>
<circle cx="957.06" cy="272.35" r=".25" opacity=".5"/>
<circle cx="874.94" cy="199.68" r=".25"/>
<circle cx="947.02" cy="223.31" r=".25"/>
<circle cx="239.27" cy="205.59" r=".25"/>
<circle cx="297.75" cy="174.87" r=".25"/>
<circle cx="306.02" cy="109.88" r=".25"/>
<circle cx="588.41" cy="524.91" r=".25" opacity=".05"/>
<circle cx="675.26" cy="460.51" r=".25" opacity=".1"/>
<circle cx="713.07" cy="382.53" r=".25" opacity=".1"/>
<circle cx="877.31" cy="348.85" r=".25" opacity=".5"/>
<circle cx="910.98" cy="220.06" r=".25"/>
<circle cx="861.35" cy="290.37" r=".25" opacity=".5"/>
<circle cx="885.58" cy="263.19" r=".25"/>
<circle cx="720.16" cy="251.67" r=".25"/>
<circle cx="283.99" cy="506.17" r=".5" opacity=".05"/>
<circle cx="299.94" cy="540.44" r=".5" opacity=".05"/>
<circle cx="314.12" cy="468.36" r=".5" opacity=".1"/>
<circle cx="380.88" cy="439.41" r=".5" opacity=".1"/>
<circle cx="451.77" cy="435.28" r=".25" opacity=".1"/>
<circle cx="170.91" cy="278.68" r=".5" opacity=".5"/>
<circle cx="79.755" cy="319.95" r=".5" opacity=".5"/>
<circle cx="51.778" cy="272.05" r=".25" opacity=".5"/>
<circle cx="282.77" cy="236.61" r=".25"/>
<circle cx="96.257" cy="277.79" r=".25" opacity=".5"/>
<circle cx="113.35" cy="165.66" r=".25"/>
<circle cx="276.37" cy="77.168" r=".5"/>
<circle cx="73.732" cy="179.96" r=".25"/>
<circle cx="11.843" cy="61.141" r=".25"/>
<circle cx="46.394" cy="22.158" r=".5"/>
<circle cx="19.218" cy="80.645" r=".25"/>
<circle cx="105.92" cy="182.97" r=".5"/>
<circle cx="230.57" cy="23.461" r=".5"/>
<circle cx="140.18" cy="54.772" r=".5"/>
<circle cx="72.245" cy="87.265" r=".5"/>
<circle cx="60.43" cy="125.07" r=".25"/>
<circle cx="156.73" cy="136.89" r=".25"/>
<circle cx="33.845" cy="125.07" r=".25"/>
<circle cx="39.753" cy="494.31" r=".5" opacity=".05"/>
<circle cx="78.744" cy="497.86" r=".5" opacity=".05"/>
<circle cx="114.19" cy="461.23" r=".5" opacity=".1"/>
<circle cx="150.82" cy="389.15" r=".25" opacity=".1"/>
<circle cx="611.46" cy="511.7" r=".5" opacity=".05"/>
<circle cx="677.62" cy="532.97" r=".5" opacity=".05"/>
<circle cx="781.6" cy="439.83" r=".5" opacity=".1"/>
<circle cx="768.77" cy="538.03" r=".25" opacity=".05"/>
<circle cx="650.26" cy="544.25" r=".25" opacity=".05"/>
<circle cx="711.82" cy="499.65" r=".5" opacity=".05"/>
<circle cx="611.39" cy="550.46" r=".25" opacity=".05"/>
<circle cx="540.27" cy="459.33" r=".5" opacity=".1"/>
<circle cx="496.25" cy="391.39" r=".5" opacity=".1"/>
<circle cx="386.96" cy="375.14" r=".5" opacity=".3"/>
<circle cx="633.31" cy="341.17" r=".5" opacity=".5"/>
<circle cx="601.41" cy="389.03" r=".5" opacity=".1"/>
<circle cx="613.82" cy="355.94" r=".25" opacity=".5"/>
<circle cx="660.49" cy="377.8" r=".25" opacity=".3"/>
<circle cx="489.75" cy="449.29" r=".25" opacity=".1"/>
<circle cx="563.01" cy="463.47" r=".25" opacity=".1"/>
<circle cx="905.07" cy="484.61" r=".25" opacity=".05"/>
<circle cx="864.29" cy="524.61" r=".5" opacity=".05"/>
<circle cx="857.49" cy="478.53" r=".5" opacity=".05"/>
<circle cx="928.98" cy="520.48" r=".25" opacity=".05"/>
<circle cx="900.03" cy="542.92" r=".25" opacity=".05"/>
<circle cx="961.62" cy="395.99" r=".5" opacity=".1"/>
<circle cx="997.06" cy="383.59" r=".25" opacity=".1"/>
<circle cx="976.39" cy="414.9" r=".25" opacity=".1"/>
<circle cx="936.51" cy="340.88" r=".5" opacity=".5"/>
<circle cx="931.19" cy="434.22" r=".5" opacity=".1"/>
<circle cx="830.76" cy="175.46" r=".25"/>
<circle cx="855.28" cy="392.7" r=".5" opacity=".1"/>
<circle cx="881.27" cy="403.92" r=".25" opacity=".1"/>
<circle cx="927.06" cy="387.55" r=".25" opacity=".1"/>
<circle cx="583.1" cy="400.84" r=".25" opacity=".1"/>
<circle cx="607.32" cy="410.89" r=".25" opacity=".1"/>
<circle cx="470.26" cy="406.75" r=".25" opacity=".1"/>
<circle cx="814.09" cy="32.197" r=".5"/>
<circle cx="787.46" cy="276.88" r=".5" opacity=".5"/>
<circle cx="444.26" cy="33.97" r=".5"/>
<circle cx="859.58" cy="249.01" r=".5"/>
<circle cx="711.89" cy="364.81" r=".5" opacity=".3"/>
<circle cx="757.97" cy="117.56" r=".25"/>
<circle cx="508.07" cy="14.769" r=".5"/>
<circle cx="516.34" cy="150.65" r=".5"/>
<circle cx="542.63" cy="131.6" r=".25"/>
<circle cx="568.03" cy="164.97" r=".25"/>
<circle cx="562.84" cy="282.81" r=".25" opacity=".5"/>
<circle cx="653.4" cy="277.37" r=".25" opacity=".5"/>
<circle cx="464.18" cy="83.72" r=".5"/>
<circle cx="423.42" cy="200.1" r=".5"/>
<circle cx="702.86" cy="120.94" r=".5"/>
<circle cx="708.64" cy="161.28" r=".25"/>
<circle cx="602.42" cy="99.08" r=".5"/>
<circle cx="715.85" cy="70.132" r=".25"/>
<circle cx="799.14" cy="140.52" r=".25"/>
<circle cx="871.8" cy="10.549" r=".25"/>
<circle cx="873.11" cy="133.26" r=".5"/>
<circle cx="790.4" cy="96.632" r=".5"/>
<circle cx="734.27" cy="26.92" r=".25"/>
<circle cx="642.6" cy="115.03" r=".25"/>
<circle cx="948.2" cy="49.33" r=".5"/>
<circle cx="870.22" cy="70.007" r=".5"/>
<circle cx="918.96" cy="166.3" r=".5"/>
<circle cx="978.33" cy="12.702" r=".5"/>
<circle cx="870.22" cy="95.115" r=".25"/>
<circle cx="951.15" cy="29.834" r=".25"/>
<circle cx="982.46" cy="54.647" r=".25"/>
<circle cx="910.98" cy="87.14" r=".25"/>
<circle cx="824.73" cy="51.693" r=".25"/>
<circle cx="967.99" cy="124.65" r=".25"/>
<circle cx="690.03" cy="313.7" r=".5" opacity=".5"/>
<circle cx="966.51" cy="273.53" r=".5" opacity=".5"/>
<circle cx="783.67" cy="16.076" r=".25"/>
<circle cx="821.18" cy="79.46" r=".25"/>
<circle cx="843.04" cy="72.666" r=".25"/>
<circle cx="652.22" cy="187.28" r=".25"/>
<circle cx="602" cy="11.816" r=".25"/>
<circle cx="523.43" cy="44.308" r=".25"/>
<circle cx="600.82" cy="131.74" r=".25"/>
<circle cx="528.75" cy="84.481" r=".25"/>
<circle cx="489.75" cy="23.631" r=".25"/>
<circle cx="666.99" cy="152.42" r=".25"/>
<circle cx="343.54" cy="22.575" r=".5"/>
<circle cx="278.55" cy="36.753" r=".25"/>
<circle cx="348.26" cy="43.843" r=".25"/>
<circle cx="57.01" cy="538.32" r=".5" opacity=".05"/>
<circle cx="25.108" cy="538.91" r=".25" opacity=".05"/>
<circle cx="17.536" cy="423.14" r=".25" opacity=".1"/>
<circle cx="50.154" cy="407.49" r=".5" opacity=".1"/>
<circle cx="30.067" cy="446.48" r=".25" opacity=".1"/>
<circle cx="33.254" cy="216.05" r=".5"/>
<circle cx="102.37" cy="298.76" r=".25" opacity=".5"/>
<circle cx="13.758" cy="227.28" r=".25"/>
<circle cx="61.736" cy="559.59" r=".25" opacity=".05"/>
<circle cx="420.45" cy="261.86" r=".25"/>
<circle cx="457.79" cy="311.19" r=".5" opacity=".5"/>
<circle cx="530.81" cy="330.84" r=".5" opacity=".5"/>
<circle cx="513.09" cy="306.02" r=".25" opacity=".5"/>
<circle cx="126.83" cy="95.769" r=".25"/>
<circle cx="513.17" cy="521.46" r=".5" opacity=".05"/>
<circle cx="237.86" cy="269.78" r=".25" opacity=".5"/>
<circle cx="201.04" cy="242.08" r=".25"/>
<circle cx="226.83" cy="306.18" r=".25" opacity=".5"/>
<circle cx="245.31" cy="336.14" r=".25" opacity=".5"/>
<circle cx="321.16" cy="282.78" r=".5" opacity=".5"/>
<circle cx="308.17" cy="287.51" r=".25" opacity=".5"/>
<circle cx="628.14" cy="200.85" r=".5"/>
<circle cx="373.51" cy="243.39" r=".25"/>
<circle cx="279.55" cy="447.09" r=".25" opacity=".1"/>
<circle cx="504.45" cy="558.22" r=".25" opacity=".05"/>
<circle cx="174.61" cy="435.47" r=".25" opacity=".1"/>
<circle cx="131.86" cy="500.26" r=".25" opacity=".05"/>
<circle cx="238.79" cy="405.73" r=".25" opacity=".1"/>
<circle cx="224.97" cy="413.01" r=".5" opacity=".1"/>
<circle cx="281.55" cy="343.31" r=".25" opacity=".5"/>
<circle cx="311.46" cy="352.56" r=".25" opacity=".5"/>
<circle cx="285.23" cy="362.79" r=".5" opacity=".3"/>
<circle cx="268.69" cy="372.25" r=".25" opacity=".3"/>
<circle cx="151.57" cy="224.57" r=".25"/>
<circle cx="110.99" cy="410.52" r=".25" opacity=".1"/>
<circle cx="101.5" cy="390.56" r=".5" opacity=".1"/>
<circle cx="157.62" cy="346.84" r=".25" opacity=".5"/>
<circle cx="337.73" cy="232.83" r=".25"/>
<circle cx="717.56" cy="207.55" r=".5"/>
<circle cx="322.33" cy="312.12" r=".25" opacity=".5"/>
<circle cx="347.6" cy="445.45" r=".25" opacity=".1"/>
<circle cx="403.72" cy="424.18" r=".25" opacity=".1"/>
<circle cx="323.97" cy="435.99" r=".25" opacity=".1"/>
<circle cx="524.24" cy="495.66" r=".25" opacity=".05"/>
<circle cx="346.86" cy="365.69" r=".25" opacity=".3"/>
<circle cx="614.04" cy="482.52" r=".25" opacity=".05"/>
<circle cx="497.51" cy="257.43" r=".25"/>
<circle cx="485.4" cy="225.82" r=".25"/>
<circle cx="232.77" cy="554.15" r=".5" opacity=".05"/>
<circle cx="209.73" cy="485.03" r=".5" opacity=".05"/>
<circle cx="652.34" cy="15.338" r=".5"/>
<circle cx="673.98" cy="45.91" r=".25"/>
<circle cx="664.26" cy="424.03" r=".25" opacity=".1"/>
<circle cx="395.45" cy="489.61" r=".25" opacity=".05"/>
<circle cx="372.12" cy="531.85" r=".25" opacity=".05"/>
<circle cx="733.08" cy="548.39" r=".25" opacity=".05"/>
<circle cx="431.93" cy="542.19" r=".25" opacity=".05"/>
<circle cx="602.96" cy="454.46" r=".25" opacity=".1"/>
<circle cx="410.22" cy="452.98" r=".25" opacity=".1"/>
<circle cx="349.96" cy="554.59" r=".5" opacity=".05"/>
<circle cx="416.72" cy="526.24" r=".5" opacity=".05"/>
<circle cx="465.9" cy="531.85" r=".25" opacity=".05"/>
<circle cx="537.53" cy="540.86" r=".25" opacity=".05"/>
<circle cx="967.18" cy="502.92" r=".5" opacity=".05"/>
<circle cx="1006.5" cy="481.36" r=".25" opacity=".05"/>
<circle cx="972.57" cy="458.02" r=".25" opacity=".1"/>
<circle cx="986.53" cy="527.71" r=".25" opacity=".05"/>
<circle cx="970.58" cy="550.16" r=".5" opacity=".05"/>
<circle cx="883.07" cy="442.94" r=".25" opacity=".1"/>
<circle cx="1016.4" cy="525.05" r=".25"/>
<circle cx="11.52" cy="14.474" r=".25"/>
<circle cx="42.241" cy="50.512" r=".25"/>
<circle cx="15.083" cy="351.22" r=".5" opacity=".5"/>
<circle cx="37.532" cy="364.81" r=".25" opacity=".3"/>
<circle cx="961.79" cy="96.888" r=".25"/>
<circle cx="1000.8" cy="127.02" r=".25"/>
<circle cx="989.26" cy="207.36" r=".25"/>
<circle cx="1002.3" cy="171.33" r=".25"/>
<circle cx="978.03" cy="311.04" r=".5" opacity=".5"/>
<circle cx="986.89" cy="225.38" r=".5"/>
<circle cx="196.73" cy="175.17" r=".25"/>
<circle cx="124.65" cy="45.195" r=".25"/>
<circle cx="96.888" cy="84.186" r=".25"/>
<circle cx="258.17" cy="99.989" r=".25"/>
<circle cx="783.96" cy="554.23" r=".5" opacity=".05"/>
<circle cx="811.14" cy="531.79" r=".5" opacity=".05"/>
</g>
</svg>
